<?xml version="1.0" encoding="UTF-8"?>
<svg id="uuid-5ef76d2a-fa99-4d56-bad3-2f3037ab6d5a" data-name="Ebene_2" xmlns="http://www.w3.org/2000/svg" viewBox="0 0 486.33 416.69">
  <defs>
    <style>
      .uuid-a8980d05-708e-4881-a5d3-d2a908040b3b {
        fill: #fff;
      }

      .uuid-fe5cc247-369d-418b-947b-cca0e3ee7dae {
        fill: #ffa8a7;
      }
    </style>
  </defs>
  <g id="uuid-1a758b53-1670-4883-a7e3-e7e6ae265753" data-name="Ebene_1">
    <g>
      <path class="uuid-a8980d05-708e-4881-a5d3-d2a908040b3b" d="M486.33,162.29c0-24.12-14.26-46.06-36.19-55.92-5.48-33.99-33.45-60.31-67.44-63.05-9.32-19.19-29.06-31.8-50.99-31.8-2.74,0-5.48.55-8.22.55h-.55c-2.74.55-6.03,1.1-8.77,2.19-10.97-8.77-24.67-14.26-38.93-14.26-11.51,0-23.03,3.29-32.35,9.87-9.87-4.39-20.83-6.58-32.35-6.58-22.48,0-43.86,9.32-58.67,26.32-4.93-1.1-9.32-1.64-14.26-1.64-19.74,0-37.83,9.87-48.25,26.87h-4.93c-1.1,0-2.19.55-3.29.55s-1.65.55-2.74.55-2.19.55-3.29,1.1c-1.1,0-1.65.55-2.74.55-1.1.55-2.19.55-2.74,1.1-1.1.55-2.19.55-2.74,1.1-.55.55-1.65.55-2.19,1.1-1.1.55-2.19,1.1-3.29,1.65-19.19,10.42-32.35,30.7-33.99,53.73v.55C9.87,133.23,0,156.81,0,180.93c0,48.8,40.03,88.82,88.82,88.82,4.93,0,10.42-.55,15.35-1.1,6.58,2.19,13.71,3.29,20.83,3.84,14.26,35.09,42.77,53.73,81.69,53.73s82.24,37.83,82.24,82.24v8.22h62.5l-7.13-50.99c43.32,4.39,84.44-23.58,95.4-66.89,1.64-7.68,2.74-15.35,2.74-22.48,25.77-9.32,43.86-33.99,43.86-61.96,0-9.32-1.65-18.09-5.48-26.32,3.29-8.22,5.48-17,5.48-25.77"/>
      <path class="uuid-fe5cc247-369d-418b-947b-cca0e3ee7dae" d="M364.61,257.69c3.29,2.19,3.84,6.58,1.65,9.87-13.71,19.74-35.64,30.7-58.12,30.7-13.71,0-27.41-3.84-39.48-12.06-3.29-2.19-3.84-6.58-1.64-9.87,2.19-3.29,6.58-3.84,9.87-1.65,12.61,8.23,27.41,11.51,42.22,8.77,14.8-2.74,27.41-10.97,36.19-23.58,1.64-3.29,6.03-4.39,9.32-2.19M197.38,118.43c-10.96,0-20.83-4.93-28.51-12.06-12.61,18.09-33.44,27.96-54.28,27.96-10.97,0-22.48-2.74-32.9-8.77-3.29-2.19-4.39-6.58-2.74-9.87,2.19-3.29,6.58-4.39,9.87-2.74,24.67,14.26,56.47,6.03,71.28-19.19-2.74-6.03-4.39-12.61-4.39-19.19,0-3.84,3.29-7.13,7.13-7.13s7.13,3.29,7.13,7.13c-.55,15.35,12.06,28.51,27.41,29.06,3.84,0,7.13,3.29,7.13,7.13,0,4.93-3.29,7.68-7.13,7.68M203.96,244.53c-1.1,2.19-3.84,3.29-6.03,3.29-1.1,0-2.74-.55-3.84-1.1-3.29-2.19-4.39-6.58-2.19-9.87,12.06-19.19,6.03-44.41-13.16-56.47-3.29-2.19-4.39-6.58-2.19-9.87,2.19-3.29,6.58-4.39,9.87-2.19,25.77,16.45,33.45,50.44,17.54,76.21M220.96,81.69c0-3.84,3.29-7.13,7.13-7.13,31.25,0,57.02,25.22,57.02,57.02,0,3.84-3.29,7.13-7.13,7.13s-7.13-3.29-7.13-7.13c0-23.58-19.19-42.77-42.77-42.77-3.84,0-7.13-3.29-7.13-7.13M409.57,155.16c0,3.84-3.29,7.13-7.13,7.13s-7.13-3.29-7.13-7.13c0-32.35-26.32-58.67-58.66-58.67-3.84,0-7.13-3.29-7.13-7.13s3.29-7.13,7.13-7.13c40.02,0,72.92,32.9,72.92,72.92M274.14,237.4c0-16.45-8.22-31.8-21.93-41.12-23.58-10.96-40.02-33.45-43.31-59.21-.55-3.84,2.19-7.68,6.03-8.22,3.84-.55,7.68,2.19,8.22,6.03,3.29,23.58,19.19,43.31,41.67,50.99,15.9,5.48,32.9,4.39,48.25-2.74,15.35-7.13,26.32-20.29,31.8-36.19,1.1-3.84,5.48-5.48,9.32-4.39,3.84,1.1,5.48,5.48,4.39,9.32-6.58,19.74-20.83,35.09-39.48,43.86-10.42,4.93-21.93,7.68-33.44,7.68-2.19,0-4.39,0-7.13-.55,6.03,9.87,9.87,21.38,9.87,33.99,0,3.84-3.29,7.13-7.13,7.13s-7.13-2.74-7.13-6.58M462.75,191.9c3.84,7.13,5.48,14.25,5.48,22.48,0,18.64-10.97,35.64-27.96,43.31-7.13-32.35-32.35-58.67-64.7-66.89-4.93-1.1-9.87,1.64-10.96,6.58-1.1,4.93,1.65,9.87,6.58,10.97,29.06,7.13,50.44,31.8,53.18,61.41,1.1,8.22,0,16.45-1.64,24.67-9.87,38.38-48.25,61.41-86.63,51.54l-12.61-3.29,7.68,55.93h-25.22c-5.48-51.54-57.02-91.56-99.79-91.56-29.61,0-50.44-12.06-62.5-36.19,0-.55,0-1.1-.55-1.64-9.32-19.19-1.1-42.77,18.64-52.09,4.39-2.19,6.58-7.68,4.39-12.06-2.19-4.39-7.68-6.58-12.06-4.39-20.83,9.87-32.35,30.7-32.35,52.09-4.93-.55-9.87-1.64-14.26-3.29l-2.19-1.1-2.19.55c-4.39,1.1-9.32,1.64-14.26,1.64-38.93,0-71.28-31.8-71.28-71.28,0-14.26,4.39-28.51,12.61-40.02,6.58,20.83,24.12,37.28,45.51,42.77-1.65,2.74-2.74,5.48-3.29,8.22-2.19,9.87-1.1,19.74,4.39,28.51,1.64,2.74,4.39,4.39,7.68,4.39,1.64,0,3.29-.55,4.39-1.1,4.39-2.74,5.48-8.22,3.29-12.06-2.74-4.39-3.29-9.87-2.19-14.8,1.1-4.93,4.39-9.32,8.77-12.06,4.39-2.74,5.48-8.23,3.29-12.06-2.19-3.29-6.03-4.93-9.87-3.84-25.77-.55-47.15-21.93-47.15-47.7s21.38-47.7,47.7-47.7h1.1l7.13.55,2.74-5.48c6.58-13.71,20.29-21.93,35.09-21.93,4.93,0,9.32,1.1,14.26,2.74l6.03,2.19,3.84-5.48c11.51-15.35,29.61-24.12,48.8-24.12,9.87,0,20.29,2.74,29.06,7.13l5.48,2.74,4.39-3.84c7.13-6.03,15.9-9.32,25.22-9.32,7.68,0,15.35,2.19,21.38,6.58-13.16,10.42-21.93,26.32-21.93,44.41,0,4.93,3.84,8.77,8.77,8.77s8.77-3.84,8.77-8.77c0-14.8,8.22-27.41,19.74-33.99l2.74-1.1c5.48-2.19,10.97-3.84,16.45-3.84,16.45,0,30.7,10.42,36.74,25.77l2.19,6.03h6.03c29.61,0,54.28,23.58,56.47,52.64l.55,6.03,5.48,1.64c17.54,6.03,29.61,22.48,29.61,41.12,0,7.13-1.64,14.8-5.48,20.84l-2.19,4.39,1.64,4.39ZM486.33,162.29c0-24.12-14.26-46.06-36.19-55.92-5.48-33.99-33.45-60.31-67.44-63.05-9.32-19.19-29.06-31.8-50.99-31.8-2.74,0-5.48.55-8.22.55h-.55c-2.74.55-6.03,1.1-8.77,2.19-10.97-8.77-24.67-14.26-38.93-14.26-11.51,0-23.03,3.29-32.35,9.87-9.87-4.39-20.83-6.58-32.35-6.58-22.48,0-43.86,9.32-58.67,26.32-4.93-1.1-9.32-1.64-14.26-1.64-19.74,0-37.83,9.87-48.25,26.87h-4.93c-1.1,0-2.19.55-3.29.55s-1.65.55-2.74.55-2.19.55-3.29,1.1c-1.1,0-1.65.55-2.74.55-1.1.55-2.19.55-2.74,1.1-1.1.55-2.19.55-2.74,1.1-.55.55-1.65.55-2.19,1.1-1.1.55-2.19,1.1-3.29,1.65-19.19,10.42-32.35,30.7-33.99,53.73v.55C9.87,133.23,0,156.81,0,180.93c0,48.8,40.03,88.82,88.82,88.82,4.93,0,10.42-.55,15.35-1.1,6.58,2.19,13.71,3.29,20.83,3.84,14.26,35.09,42.77,53.73,81.69,53.73s82.24,37.83,82.24,82.24v8.22h62.5l-7.13-50.99c43.32,4.39,84.44-23.58,95.4-66.89,1.64-7.68,2.74-15.35,2.74-22.48,25.77-9.32,43.86-33.99,43.86-61.96,0-9.32-1.65-18.09-5.48-26.32,3.29-8.22,5.48-17,5.48-25.77"/>
    </g>
  </g>
</svg>