<?xml version="1.0" encoding="UTF-8"?>
<svg id="uuid-fa0b09a4-2353-4402-9565-87bd93372c2d" data-name="Ebene_2" xmlns="http://www.w3.org/2000/svg" viewBox="0 0 42.86 42.73">
  <defs>
    <style>
      .uuid-b6ae03f4-75c8-41da-8065-78fc63df0ec5 {
        fill: #fff;
      }
    </style>
  </defs>
  <g id="uuid-2862fcee-a7da-446a-b0c6-abac1beaf5b9" data-name="Ebene_1">
    <path class="uuid-b6ae03f4-75c8-41da-8065-78fc63df0ec5" d="M12.74,1.38c3.87.03,7.31,2.35,8.03,6.38h0s.01.03.02.05c0,.03.02.06.03.09.01.02.02.05.04.08.02.03.03.05.05.07.02.02.04.05.06.07.02.02.04.04.06.06.02.02.05.04.08.05.02.01.05.03.07.04.03.01.06.02.09.03.01,0,.03,0,.05.01.01,0,.02,0,.03,0,.03,0,.06,0,.09,0,.03,0,.06,0,.09,0,.01,0,.02,0,.03,0,.03,0,.06-.01.09-.02,0,0,.01,0,.02,0,.05-.02.1-.04.15-.08h0s.09-.08.13-.12t0,0s.07-.1.09-.15c.03-.06.04-.11.05-.17.73-4.03,4.15-6.36,8.03-6.38,3.42-.02,7.13,1.77,9.47,5.94,1.47,2.62,2,5.29,1.93,7.89l-2.99-3.08c-.6-.62-1.4-.93-2.19-.93-.79,0-1.59.32-2.19.94-.46.48-.75,1.07-.86,1.69l-2.02-2.07c-.6-.62-1.4-.93-2.19-.93-.79,0-1.59.31-2.19.94-1.21,1.24-1.22,3.28-.02,4.52l.56.57c-.6.11-1.18.41-1.64.88-1.21,1.24-1.21,3.27-.01,4.51l2.33,2.4c-.6.11-1.18.41-1.65.88-1.21,1.24-1.21,3.27,0,4.51l4.24,4.37c-4.11,3.65-8.13,6.15-9.26,6.84-1.13-.68-5.15-3.18-9.26-6.84l4.24-4.37c1.2-1.24,1.19-3.27-.02-4.51-.46-.48-1.04-.77-1.64-.88l2.33-2.4c1.2-1.24,1.19-3.26-.02-4.51-.46-.48-1.04-.77-1.64-.88l.56-.57c1.2-1.24,1.2-3.27,0-4.52-.6-.62-1.4-.93-2.2-.94-.79,0-1.59.31-2.19.93l-2.01,2.07c-.11-.62-.39-1.21-.86-1.69-.61-.62-1.4-.93-2.2-.94-.79,0-1.59.31-2.19.93l-2.99,3.08c-.07-2.6.47-5.27,1.93-7.89C5.61,3.15,9.32,1.36,12.74,1.38ZM12.75,0C8.86-.02,4.68,2.06,2.11,6.63.21,10.02-.25,13.56.12,16.85H.12s0,.02,0,.02c0,.04.01.08.03.11,0,.02.01.04.02.05.02.04.04.09.07.13.01.02.02.03.04.05.01.01.02.03.04.05.01.01.02.02.03.03.01.01.03.03.05.04.02.02.05.03.08.05.03.02.07.03.1.05.03.01.06.02.09.03.03,0,.06,0,.09,0,.02,0,.04,0,.06,0,.02,0,.04,0,.05,0,.15-.02.29-.09.4-.2l4.03-4.15c.69-.71,1.78-.71,2.49.01.68.7.71,1.78.07,2.5l-6.09,6.27s-.07.08-.1.12c0,.02-.02.03-.02.05-.02.03-.03.06-.04.1,0,.02-.01.04-.02.06-.02.1-.02.21,0,.31,0,.02.01.04.02.06.01.03.02.07.04.1,0,.02.02.03.02.05.03.05.06.09.1.13.04.04.08.07.12.1.01,0,.02.01.04.02.04.02.07.04.11.05.01,0,.02,0,.04.01.1.03.21.03.32,0,.01,0,.02,0,.03,0,.04-.01.08-.03.12-.06,0,0,.02,0,.03-.01.05-.03.09-.06.13-.1l9.84-10.13c.69-.71,1.78-.71,2.49.02.7.72.71,1.85.02,2.56l-10.87,11.19h0s-.07.09-.1.14c0,0,0,.02-.01.03-.02.04-.04.09-.05.13,0,.01,0,.02,0,.03-.01.05-.02.1-.02.15v.02c0,.18.07.35.19.48.08.08.19.15.3.17,0,0,.01,0,.02,0,.05.01.1.02.15.02h.02s.09,0,.14-.02c.01,0,.02,0,.04,0,.04-.01.08-.03.12-.05.01,0,.02-.01.03-.01.05-.03.09-.06.13-.1l8.52-8.77c.69-.71,1.79-.71,2.49.01.7.72.7,1.85,0,2.56l-5.8,5.97-3.11,3.2h0c-.11.11-.17.25-.19.41,0,0,0,0,0,.01,0,.04,0,.09,0,.13,0,0,0,.01,0,.02,0,.04.01.08.02.12,0,0,0,.02,0,.03.01.04.03.08.05.11,0,0,0,.01.01.02.03.04.06.08.09.12.03.03.07.07.11.09.02.01.04.02.05.03.02.01.05.02.07.03.02,0,.04.01.06.02.03.01.06.02.09.02.01,0,.03,0,.04,0,.03,0,.07,0,.1,0,.01,0,.03,0,.04,0,.03,0,.06-.01.09-.02.02,0,.04-.01.06-.02.03-.01.05-.02.07-.04.02,0,.04-.02.05-.03.04-.03.08-.06.11-.09l4.79-4.93c.69-.71,1.79-.71,2.49.02.7.72.7,1.85,0,2.56l-4.74,4.88h0s-.01.02-.02.03h0c-.24.27-.22.69.02.95.01,0,.02.02.03.02,5.15,4.7,10.36,7.69,10.36,7.69,0,0,.01,0,.02,0,0,0,.02,0,.02.01.03.01.06.03.09.04.01,0,.02,0,.04,0,.03,0,.06.01.1.02h.03s.07,0,.11,0h0s.09-.01.12-.03c.05-.02.1-.04.14-.07.12-.07,5.25-3.02,10.35-7.67h0s.02-.01.03-.02c0,0,0,0,0,0,.1-.1.16-.23.18-.37h0c.01-.11,0-.21-.02-.3-.02-.06-.05-.12-.08-.18-.02-.03-.04-.06-.06-.08,0,0-.01-.01-.02-.02s0,0-.01-.01l-4.74-4.89c-.69-.71-.69-1.84.01-2.56.7-.72,1.79-.73,2.49-.02l4.79,4.93h0s.07.06.11.09c.01,0,.03.02.04.03.03.01.05.03.09.04.01,0,.03,0,.04.01.03.01.07.02.1.02.01,0,.03,0,.04,0,.04,0,.07,0,.1,0,.02,0,.03,0,.04,0,.03,0,.06-.01.1-.02.01,0,.03,0,.04-.01.03-.01.06-.03.09-.04.02,0,.03-.02.04-.03.04-.02.08-.05.11-.09.01-.01.02-.02.03-.04,0,0,0,0,0,0,.01,0,.02-.02.03-.03.2-.27.17-.66-.06-.9l-4.78-4.92s-.04-.04-.06-.06l-4.07-4.19c-.69-.71-.69-1.84.01-2.56.68-.7,1.72-.73,2.41-.09l8.6,8.84h0,0s.02.02.03.03c.03.03.06.05.1.08.02.01.04.02.06.03.03.01.05.03.08.04.02,0,.05.01.07.02.03,0,.07.01.1.01h.06s.07,0,.1-.01c.02,0,.04,0,.07-.02.03-.01.07-.02.1-.04.02,0,.03-.02.05-.02.05-.03.09-.06.13-.1.01-.01.02-.03.04-.04.01-.02.03-.03.04-.05,0-.01.02-.03.03-.04,0,0,0,0,0,0,0-.01.02-.03.02-.04,0,0,0,0,0-.01,0,0,0,0,0,0,0-.02.01-.03.02-.04,0-.01,0-.03.01-.04,0,0,0-.01,0-.02,0-.01,0-.03,0-.04,0,0,0-.01,0-.02,0,0,0-.02,0-.04,0,0,0-.01,0-.02h0s0-.08,0-.12c0,0,0,0,0,0,0-.02,0-.04,0-.05,0,0,0-.02,0-.02,0,0,0,0,0-.01,0-.01,0-.03,0-.04-.01-.03-.02-.06-.03-.09h0s0,0,0-.01c0-.01-.01-.03-.02-.04,0,0,0,0,0,0,0-.01-.02-.03-.03-.04,0,0,0,0,0,0,0-.02-.02-.03-.03-.04t0,0s-.02-.03-.04-.04l-10.87-11.19c-.69-.71-.69-1.84.02-2.56.7-.72,1.79-.73,2.49-.01l3.79,3.91s.01.01.02.02l6.03,6.21h0s.08.08.13.1c.01,0,.02.01.03.02.04.02.07.03.11.05.02,0,.03.01.05.02.1.02.21.02.31,0,.02,0,.04,0,.05-.02.04-.01.07-.03.11-.05.01,0,.02-.01.03-.02.05-.03.09-.06.13-.1h0s.04-.05.06-.08c0,0,0-.01.01-.02,0,0,0-.02.01-.02,0,0,.01-.02.02-.03,0,0,0,0,0-.01,0-.01.01-.03.02-.04h0s0,0,0,0c0-.02.01-.03.02-.05,0,0,0-.01,0-.02,0,0,0-.01,0-.02,0-.03.02-.06.02-.1,0-.05,0-.1,0-.16,0-.01,0-.02,0-.04h0s-.01-.07-.02-.1c0,0,0,0,0,0,0-.01,0-.02,0-.04,0-.02-.01-.04-.02-.05,0-.01-.01-.03-.02-.04,0,0,0,0,0-.01,0,0-.01-.02-.02-.03,0,0-.01-.01-.01-.02,0,0,0,0,0,0,0-.01-.02-.03-.03-.04-.01-.01-.03-.03-.04-.04h0l-6.03-6.21c-.69-.71-.69-1.84.02-2.56.7-.72,1.79-.73,2.49-.01l4.03,4.15h0s.03.02.04.04c.02.01.04.03.05.04.04.03.08.05.12.07.02,0,.04.01.06.02.03,0,.05.02.08.02.01,0,.02,0,.03.01.02,0,.04,0,.05,0,.02,0,.04,0,.06,0,.03,0,.06,0,.09,0,.04,0,.09-.02.13-.04.02,0,.04-.02.05-.03.03-.02.06-.04.09-.06.02-.01.03-.02.05-.04.01,0,.02-.02.03-.03.02-.02.04-.04.06-.07,0,0,.01-.02.02-.03.03-.04.05-.08.07-.12,0-.01,0-.02.01-.03.02-.05.03-.1.04-.15,0,0,0,0,0-.01.37-3.29-.1-6.82-2-10.21C38.19,2.06,34-.02,30.12,0c-3.69.02-7.15,1.97-8.68,5.37C19.9,1.97,16.44.03,12.75,0h0Z"/>
  </g>
</svg>