<svg xmlns="http://www.w3.org/2000/svg" viewBox="0 0 1754 1159" width="1754" height="1159">
  <path d="M 642 374 L 338 477 L 337 1044 L 340 1044 L 642 942 Z M 1753 0 L 1685 22 L 1682 24 L 1593 54 L 1587 55 L 1516 80 L 1344 138 L 1341 138 L 1234 175 L 1234 248 L 1266 238 L 1281 232 L 1284 233 L 1285 726 L 1354 703 L 1355 207 L 1435 181 L 1438 179 L 1480 165 L 1483 166 L 1484 658 L 1488 658 L 1554 635 L 1553 212 L 1554 140 L 1679 98 L 1682 99 L 1683 192 L 1684 591 L 1687 591 L 1753 568 Z M 304 488 L 0 591 L 0 1158 L 70 1135 L 71 923 L 121 907 L 124 905 L 234 868 L 236 1079 L 304 1056 L 305 771 L 181 812 L 178 814 L 164 817 L 304 687 Z M 573 473 L 571 892 L 487 921 L 410 946 L 407 946 L 407 528 L 409 526 L 570 472 Z M 1002 253 L 670 365 L 669 438 L 672 438 L 750 411 L 767 407 L 767 897 L 768 900 L 774 899 L 837 877 L 837 383 L 839 381 L 1001 327 Z M 1098 221 L 1095 221 L 1028 244 L 1027 811 L 1031 811 L 1262 733 L 1262 660 L 1255 661 L 1100 714 L 1097 713 Z M 235 587 L 235 654 L 71 806 L 71 640 L 232 586 Z" fill="currentColor" fill-rule="evenodd"/>
</svg>
