<?xml version="1.0" encoding="utf-8"?>
<!-- Generator: Adobe Illustrator 25.2.0, SVG Export Plug-In . SVG Version: 6.00 Build 0)  -->
<svg version="1.1" id="Ebene_1" xmlns="http://www.w3.org/2000/svg" xmlns:xlink="http://www.w3.org/1999/xlink" x="0px" y="0px"
	 viewBox="0 0 39.3 36.9" style="enable-background:new 0 0 39.3 36.9;" xml:space="preserve">
<style type="text/css">
	.st0{opacity:0.5;fill:#42B2AD;enable-background:new    ;}
	.st1{opacity:0.5;fill:#8B5ED9;enable-background:new    ;}
</style>
<path class="st0" d="M38.1,22.8L27.7,4.7c-2.5-4.4-8.1-5.9-12.5-3.3l0,0c-4.4,2.5-5.9,8.1-3.3,12.5L22.3,32
	c2.5,4.4,8.1,5.9,12.5,3.3l0,0C39.1,32.7,40.6,27.2,38.1,22.8z"/>
<path class="st1" d="M27.7,13.8L17.2,31.9c-2.5,4.4-8.1,5.9-12.5,3.3l0,0c-4.4-2.5-5.9-8.1-3.3-12.5l10.4-18
	c2.5-4.4,8.1-5.9,12.5-3.3l0,0C28.7,3.9,30.2,9.5,27.7,13.8z"/>
</svg>
