<svg xmlns="http://www.w3.org/2000/svg" viewBox="0 0 748 996" fill="none">
  <defs>
    <filter id="glow" x="-30%" y="-30%" width="160%" height="160%">
      <feGaussianBlur stdDeviation="3" result="blur"/>
      <feMerge>
        <feMergeNode in="blur"/>
        <feMergeNode in="SourceGraphic"/>
      </feMerge>
    </filter>
  </defs>

  <!-- soft glow -->
  <path d="M 504.00 953.50 L 415.50 902.00 L 500.50 946.00 L 372.50 506.00 L 388.00 507.50 L 605.00 634.50 L 614.00 636.50 L 613.50 631.00 L 269.50 84.00 L 291.00 89.50 L 661.00 305.50 L 664.00 17.50 L 664.00 310.50 L 275.50 87.00 L 617.50 638.00 L 635.50 655.00 L 397.00 515.50 L 375.50 508.00 L 504.00 953.50 Z M 0.00 539.50 L 6.00 548.50 L 84.00 593.50 L 104.50 599.00 L 105.00 249.50 L 287.50 355.00 L 106.00 253.50 L 109.50 611.00 L 6.00 551.50 L 0.00 539.50 Z M 58.00 971.50 L 90.00 892.50 L 143.50 919.00 L 270.00 626.50 L 146.50 919.00 L 139.00 922.50 L 90.00 895.50 L 58.00 971.50 Z M 596.50 995.00 L 551.00 723.50 L 686.50 775.00 L 555.50 732.00 L 596.50 995.00 Z" stroke="currentColor" stroke-width="10" stroke-linecap="round" stroke-linejoin="round" opacity="0.35" filter="url(#glow)"/>
  <!-- core line -->
  <path d="M 504.00 953.50 L 415.50 902.00 L 500.50 946.00 L 372.50 506.00 L 388.00 507.50 L 605.00 634.50 L 614.00 636.50 L 613.50 631.00 L 269.50 84.00 L 291.00 89.50 L 661.00 305.50 L 664.00 17.50 L 664.00 310.50 L 275.50 87.00 L 617.50 638.00 L 635.50 655.00 L 397.00 515.50 L 375.50 508.00 L 504.00 953.50 Z M 0.00 539.50 L 6.00 548.50 L 84.00 593.50 L 104.50 599.00 L 105.00 249.50 L 287.50 355.00 L 106.00 253.50 L 109.50 611.00 L 6.00 551.50 L 0.00 539.50 Z M 58.00 971.50 L 90.00 892.50 L 143.50 919.00 L 270.00 626.50 L 146.50 919.00 L 139.00 922.50 L 90.00 895.50 L 58.00 971.50 Z M 596.50 995.00 L 551.00 723.50 L 686.50 775.00 L 555.50 732.00 L 596.50 995.00 Z" stroke="currentColor" stroke-width="4" stroke-linecap="round" stroke-linejoin="round"/>
</svg>
