<svg version="1.1" id="Layer_1" xmlns="http://www.w3.org/2000/svg" xmlns:xlink="http://www.w3.org/1999/xlink" x="0px" y="0px"
	 width="100%" viewBox="0 280 1536 450" enable-background="new 0 280 1536 450" xml:space="preserve">
<path fill="#010000" opacity="1.000000" stroke="none" 
	d="
M966.000000,1025.000000 
	C644.000000,1025.000000 322.500000,1025.000000 1.000000,1025.000000 
	C1.000000,683.666687 1.000000,342.333344 1.000000,1.000000 
	C513.000000,1.000000 1025.000000,1.000000 1537.000000,1.000000 
	C1537.000000,342.333344 1537.000000,683.666687 1537.000000,1025.000000 
	C1346.833374,1025.000000 1156.666626,1025.000000 966.000000,1025.000000 
M707.187988,589.547302 
	C699.598389,609.716919 692.008728,629.886536 684.134216,650.813171 
	C695.209290,650.813171 705.329834,650.984192 715.431641,650.627380 
	C716.933960,650.574280 719.025330,648.303772 719.698608,646.605042 
	C726.317078,629.908447 732.688660,613.114136 739.140015,596.351318 
	C741.252686,590.861877 743.393372,585.383301 745.521179,579.899719 
	C747.101318,581.734863 747.709473,583.383667 748.036804,585.086426 
	C750.330017,597.015076 752.504089,608.967285 754.895020,620.876038 
	C755.199829,622.393921 756.344666,624.727112 757.434326,624.935486 
	C762.524536,625.908752 767.520874,626.272705 771.746765,621.790527 
	C781.454712,611.493713 791.459900,601.477356 801.333618,591.336609 
	C804.657043,587.923340 807.948059,584.478394 811.253845,581.047974 
	C811.805725,581.393982 812.357605,581.740051 812.909485,582.086060 
	C804.258728,604.718201 795.607910,627.350403 786.655579,650.771545 
	C797.888123,650.771545 808.172363,650.919739 818.442139,650.601990 
	C819.881104,650.557495 821.802124,648.488586 822.546204,646.907837 
	C824.736389,642.255249 826.512878,637.401794 828.334290,632.582703 
	C840.917542,599.291565 853.450073,565.981140 866.050049,532.696350 
	C868.856628,525.282349 871.867188,517.945557 875.088379,509.803558 
	C864.929565,509.803558 855.650330,509.657959 846.383606,509.934814 
	C844.670959,509.985992 842.697998,511.433014 841.371033,512.761169 
	C822.776245,531.372742 804.277283,550.080017 785.740906,568.750000 
	C783.679077,570.826721 781.530518,572.817261 778.777466,575.468689 
	C777.613403,573.152344 776.516968,571.701355 776.143188,570.083374 
	C775.208313,566.035889 774.454590,561.932861 773.889038,557.816223 
	C771.917297,543.465637 769.989929,529.108032 768.200684,514.733826 
	C767.764404,511.228516 766.212219,509.829315 762.682861,509.903625 
	C755.854858,510.047455 749.020508,509.952148 742.189819,509.872955 
	C739.220886,509.838531 737.527283,510.757843 736.339783,513.897888 
	C726.871399,538.933716 717.147766,563.873047 707.187988,589.547302 
M351.851379,513.572998 
	C337.664337,507.591248 322.912445,507.583221 308.208099,510.393280 
	C280.860413,515.619446 261.096710,531.519043 248.692993,556.046753 
	C242.420456,568.450317 237.375671,581.577576 232.935379,594.768005 
	C230.063248,603.300110 228.137802,612.502808 227.857193,621.469727 
	C227.473572,633.727905 233.731720,642.841309 245.093475,648.394287 
	C256.203125,653.824036 268.072876,653.839661 279.819824,653.418091 
	C295.301392,652.862366 309.452881,647.768799 321.740021,637.992188 
	C338.322906,624.797485 349.949097,608.022949 357.372803,588.324402 
	C362.167511,575.601624 368.027496,563.238647 369.582153,549.416687 
	C371.465912,532.669434 366.586670,521.978027 351.851379,513.572998 
M1369.500000,650.947571 
	C1379.662354,650.956665 1389.824829,650.935242 1399.987061,650.983459 
	C1410.151489,651.031738 1410.122681,651.051208 1413.863281,641.340881 
	C1415.059082,638.236816 1416.624268,635.267456 1417.698730,632.126465 
	C1418.588013,629.527039 1419.004272,626.765808 1419.857300,623.099854 
	C1399.715088,623.099854 1380.393677,623.099854 1360.241333,623.099854 
	C1363.643677,614.380371 1366.893311,606.755554 1369.542114,598.927490 
	C1370.643921,595.671265 1372.025635,594.419250 1375.477051,594.453430 
	C1389.134766,594.588867 1402.796387,594.355225 1416.453857,594.504333 
	C1419.702393,594.539795 1422.108643,593.759583 1423.256226,590.716797 
	C1426.015625,583.400146 1428.657227,576.037964 1431.251587,568.660828 
	C1432.191895,565.987183 1430.796631,565.018250 1428.235474,565.049255 
	C1424.404663,565.095581 1420.572754,565.047852 1416.741333,565.047119 
	C1405.462524,565.045044 1394.183716,565.046387 1382.055786,565.046387 
	C1385.112671,557.041382 1388.139526,549.711365 1390.671631,542.214233 
	C1391.813965,538.831543 1393.351685,537.487061 1397.042236,537.551880 
	C1409.199341,537.765564 1421.364868,537.719055 1433.524170,537.556091 
	C1451.170532,537.319641 1446.978149,540.534729 1453.414917,523.438965 
	C1455.069336,519.044617 1456.318970,514.497803 1457.979004,509.321564 
	C1454.954590,509.167877 1453.165405,509.002167 1451.375977,508.998016 
	C1438.714722,508.968567 1426.053589,508.965424 1413.392334,508.967377 
	C1401.397705,508.969238 1389.401978,508.892914 1377.408813,509.032074 
	C1369.438843,509.124542 1368.607178,510.028992 1365.947998,517.421997 
	C1360.937866,531.350952 1355.897949,545.272278 1350.617065,559.099976 
	C1339.648071,587.821838 1328.483398,616.468872 1317.475342,645.175842 
	C1315.525635,650.260498 1316.073608,650.908997 1321.520386,650.920288 
	C1337.180298,650.952820 1352.840088,650.942261 1369.500000,650.947571 
M400.399078,528.888794 
	C396.110535,535.375366 390.894379,541.441101 387.722137,548.434021 
	C380.621094,564.087585 385.723297,576.876709 401.223633,584.432861 
	C405.237762,586.389709 409.601440,587.633240 413.814514,589.177246 
	C420.208374,591.520630 426.856476,593.336426 432.944885,596.303345 
	C439.859558,599.672852 441.464203,606.028625 436.708649,612.020081 
	C433.647552,615.876770 429.372894,619.806091 424.851990,621.281372 
	C408.896179,626.488037 393.916534,623.467896 380.897095,612.775513 
	C377.459656,609.952454 375.270477,609.579468 372.106659,612.847229 
	C367.360901,617.748840 362.306885,622.359253 357.273438,626.972961 
	C352.157471,631.662415 352.100403,631.803101 357.736542,636.047302 
	C380.415375,653.125183 405.812408,655.693298 432.271240,648.510559 
	C456.013489,642.065369 471.232574,626.418457 476.737640,602.010010 
	C479.394897,590.228149 476.250427,581.127380 465.888275,574.957520 
	C459.259460,571.010559 451.731598,568.529602 444.505829,565.644287 
	C439.570160,563.673401 434.322876,562.453003 429.464386,560.326904 
	C423.808136,557.851746 421.867615,552.587524 425.369263,547.623901 
	C428.026306,543.857544 431.801025,539.960754 435.946564,538.333008 
	C449.197723,533.129822 462.485443,534.344543 474.810699,541.580872 
	C478.017944,543.463867 479.767487,542.930969 482.032104,540.692932 
	C486.177917,536.595764 490.414398,532.588013 494.681915,528.617065 
	C502.510223,521.332764 502.436096,520.683105 492.859924,515.886230 
	C478.566772,508.726593 463.300293,506.752441 447.637878,508.241547 
	C429.992371,509.919250 413.885864,515.672485 400.399078,528.888794 
M1117.112549,511.650940 
	C1098.008179,516.308655 1083.949585,527.350281 1075.186523,544.980042 
	C1065.793701,563.876465 1071.474731,578.740662 1091.021240,586.271240 
	C1096.604248,588.422302 1102.438965,589.921570 1108.015625,592.086792 
	C1112.476807,593.818970 1117.031250,595.642761 1120.981689,598.271484 
	C1125.549072,601.310791 1126.078613,605.165100 1123.724609,610.056702 
	C1121.061035,615.591797 1116.776611,619.366089 1110.959229,621.283936 
	C1094.369019,626.753418 1079.399170,623.358093 1066.088623,612.476562 
	C1062.437256,609.491455 1059.956421,609.640747 1056.779297,612.968933 
	C1052.300171,617.661377 1047.458618,622.010864 1042.725464,626.457336 
	C1037.434937,631.427429 1037.551025,631.911072 1043.293335,636.362061 
	C1060.496338,649.696899 1080.340820,652.971375 1101.340332,651.681519 
	C1129.982178,649.922241 1152.922485,632.808044 1161.278809,607.200256 
	C1166.353027,591.650696 1162.931519,581.281555 1149.668579,573.393250 
	C1145.708618,571.038086 1141.283691,569.377930 1136.928101,567.794983 
	C1130.362183,565.408813 1123.569580,563.630676 1117.056763,561.118347 
	C1108.897583,557.971008 1107.452271,551.091492 1113.252441,544.501465 
	C1117.399780,539.789490 1122.744629,537.238281 1128.854858,536.317139 
	C1140.203491,534.606323 1151.065674,535.753662 1161.200439,541.727783 
	C1162.466064,542.473877 1165.243408,542.444397 1166.243652,541.558533 
	C1172.222900,536.262939 1177.830322,530.550720 1183.680664,525.105103 
	C1186.415039,522.559875 1186.067139,520.530640 1182.987427,518.919006 
	C1178.430664,516.534546 1173.972900,513.668518 1169.112183,512.210266 
	C1152.186279,507.132477 1135.050049,506.623901 1117.112549,511.650940 
M956.053284,536.571228 
	C954.138794,540.071960 951.958496,543.455505 950.355164,547.093323 
	C942.905029,563.996277 947.729004,577.038147 964.403564,584.994324 
	C968.133728,586.774170 972.167175,587.921143 976.068176,589.339722 
	C982.159912,591.554932 988.463379,593.317444 994.300415,596.070435 
	C1001.408630,599.422729 1002.852356,605.614502 998.642212,612.246460 
	C994.636902,618.555725 988.537781,621.657104 981.358643,622.946167 
	C966.114502,625.683289 952.749695,621.927002 941.072571,611.696899 
	C939.969177,610.730286 936.836487,610.358459 935.930481,611.160889 
	C928.747070,617.522705 921.875000,624.236145 914.852966,630.893005 
	C915.464417,631.916199 915.771912,632.726868 916.327698,633.294312 
	C917.253967,634.239868 918.315613,635.059875 919.361206,635.880493 
	C937.676147,650.255981 958.835938,653.701965 981.211609,651.232422 
	C1007.396179,648.342407 1026.001099,634.916687 1036.143677,610.182922 
	C1043.069092,593.294189 1039.236206,581.172546 1023.319153,572.323669 
	C1019.284119,570.080505 1014.799011,568.597046 1010.429016,567.018311 
	C1004.330933,564.815430 997.972168,563.252991 992.045105,560.679016 
	C985.203796,557.708069 983.645020,551.017944 988.800171,545.669495 
	C992.238464,542.102295 996.671936,538.629395 1001.298523,537.239197 
	C1013.748352,533.498291 1025.954834,535.007874 1037.336670,541.820129 
	C1038.554810,542.549255 1041.135742,542.828918 1041.972168,542.078064 
	C1048.412476,536.296326 1054.586426,530.217346 1060.823730,524.210449 
	C1062.679199,522.423584 1062.628052,520.711731 1060.338623,519.352539 
	C1057.339478,517.572021 1054.409546,515.611267 1051.243408,514.186768 
	C1038.469849,508.439545 1024.889038,506.984802 1011.161865,508.170563 
	C989.306885,510.058472 970.001404,517.485229 956.053284,536.571228 
M470.618408,413.915405 
	C465.104370,428.366150 459.626434,442.830811 454.052460,457.258392 
	C452.540741,461.171234 453.073303,462.972168 457.867523,462.905151 
	C471.855347,462.709534 485.854889,463.151154 499.837341,462.818054 
	C518.912720,462.363617 534.693481,455.140625 545.881042,439.090393 
	C557.783081,422.015198 564.568054,402.638306 569.539673,382.826355 
	C574.223083,364.162964 566.189575,351.866302 546.983093,348.969086 
	C531.142029,346.579498 514.843994,347.159454 498.740784,346.684998 
	C497.487122,346.648071 495.510376,348.418365 494.985687,349.779022 
	C486.850372,370.876984 478.899567,392.046082 470.618408,413.915405 
M668.850708,431.171051 
	C664.858398,441.301117 660.866150,451.431213 656.356262,462.874664 
	C665.178589,462.874664 672.750488,462.771973 680.317444,462.920288 
	C683.815979,462.988831 685.764648,461.702026 686.967773,458.312347 
	C690.859802,447.345947 694.977295,436.458466 699.100891,425.575745 
	C701.885315,418.227295 702.664062,417.893829 710.801453,419.648315 
	C713.196106,431.694092 715.676636,443.741425 717.960571,455.825867 
	C719.293884,462.880676 719.152527,462.915741 726.524170,462.890137 
	C732.185059,462.870483 737.845947,462.837158 743.506714,462.790009 
	C748.986328,462.744354 749.483704,462.183411 748.249329,457.100922 
	C745.344727,445.141937 742.455994,433.178253 739.411926,421.254517 
	C738.552490,417.888275 738.772278,416.040894 742.705383,414.652710 
	C758.567932,409.054047 768.522949,397.549133 773.600647,381.748383 
	C778.574158,366.271667 772.817261,354.637299 757.455566,349.538544 
	C752.627197,347.935944 747.419678,346.903351 742.346497,346.725220 
	C730.373291,346.304840 718.375854,346.620575 706.389709,346.494049 
	C702.790833,346.456055 700.776489,347.571686 699.395386,351.252777 
	C689.468323,377.710907 679.272095,404.067993 668.850708,431.171051 
M274.466125,458.817261 
	C271.511963,446.346832 268.690063,433.842651 265.522003,421.426819 
	C264.586884,417.761993 265.386871,416.179016 268.968384,414.784515 
	C284.139221,408.877411 294.197693,397.982056 299.408325,382.539062 
	C304.605774,367.135132 299.303680,355.469513 284.220459,349.655090 
	C281.755249,348.704803 279.140350,347.641907 276.565063,347.559906 
	C260.944275,347.062286 245.314850,346.709229 229.688477,346.714325 
	C228.169739,346.714813 225.933380,349.208435 225.241394,351.010010 
	C214.806107,378.177490 204.568848,405.421082 194.296661,432.651154 
	C190.626663,442.379822 186.987366,452.120056 183.005096,462.731598 
	C192.348602,462.731598 200.772034,462.911926 209.171570,462.545135 
	C210.492905,462.487396 212.234772,460.161011 212.883499,458.526855 
	C217.176788,447.711578 221.225189,436.799103 225.352264,425.917877 
	C228.074524,418.740479 228.074005,418.733643 235.868729,419.019409 
	C236.326279,419.036133 236.775055,419.292633 237.537079,419.536469 
	C238.043991,422.570160 238.519119,425.675507 239.086960,428.763794 
	C240.917740,438.720551 242.646423,448.700348 244.770233,458.594849 
	C245.119446,460.221832 247.205582,462.624542 248.585220,462.691711 
	C256.391418,463.071747 264.230469,462.954041 272.047760,462.691162 
	C272.958069,462.660522 273.803223,460.691650 274.466125,458.817261 
M549.814148,626.452576 
	C560.355835,598.087463 570.938049,569.737305 581.374695,541.333618 
	C582.385132,538.583740 583.601501,537.338867 586.666382,537.391479 
	C595.659424,537.545837 604.659302,537.481079 613.652283,537.296997 
	C615.276306,537.263794 617.925293,536.666626 618.328674,535.636047 
	C621.631409,527.197754 624.514038,518.594971 627.836853,509.153900 
	C619.106506,509.153900 611.488708,509.158417 603.870850,509.153137 
	C579.212036,509.136017 554.553040,509.060242 529.894897,509.180298 
	C527.400818,509.192413 523.399475,509.643585 522.673279,511.140564 
	C518.724792,519.279419 515.584778,527.810547 511.703308,537.344360 
	C524.426392,537.344360 535.894958,537.344360 548.198975,537.344360 
	C533.458496,575.454895 519.106567,612.560852 504.758850,649.656006 
	C505.910217,650.253174 506.335785,650.664490 506.765228,650.668640 
	C516.758240,650.763123 526.754944,650.955139 536.741272,650.719055 
	C538.236206,650.683716 540.347290,648.910278 541.037476,647.416138 
	C544.104004,640.777710 546.757019,633.948303 549.814148,626.452576 
M633.527222,370.909515 
	C644.193359,370.913696 654.862244,371.039307 665.523071,370.804016 
	C667.326233,370.764191 670.138855,369.598328 670.703003,368.222198 
	C673.455933,361.506622 675.604370,354.543243 678.075867,347.349426 
	C676.631958,346.983856 675.706116,346.545563 674.779907,346.544830 
	C652.114990,346.526550 629.449341,346.483551 606.786865,346.728485 
	C605.208496,346.745575 602.905090,348.635193 602.217590,350.211639 
	C599.225525,357.072968 596.687561,364.133362 594.020203,371.135010 
	C583.779175,398.016754 573.537964,424.898438 563.337585,451.795593 
	C562.074646,455.125702 561.055969,458.548431 559.867676,462.096893 
	C561.117065,462.442352 561.739014,462.763428 562.361755,462.765015 
	C586.360046,462.825714 610.358459,462.889801 634.356445,462.813385 
	C635.833679,462.808685 638.185791,462.043274 638.640137,460.989258 
	C641.621399,454.072601 644.192688,446.979218 647.326355,438.828796 
	C629.829102,438.828796 613.662231,438.828796 596.782166,438.828796 
	C599.126526,432.621613 601.534851,427.466125 602.968018,422.052521 
	C604.056885,417.939484 606.150330,417.018677 609.991394,417.115875 
	C618.485107,417.330658 626.988708,417.142883 635.488281,417.137939 
	C646.883118,417.131317 646.947021,417.162842 650.878845,406.685852 
	C652.350769,402.763641 653.448303,398.700928 655.040100,393.682159 
	C640.525391,393.682159 627.304749,393.682159 613.296631,393.682159 
	C614.978516,389.051758 616.324158,385.344360 617.671753,381.637726 
	C621.538452,371.002106 621.538818,371.002228 633.527222,370.909515 
M155.959763,532.356140 
	C140.943298,571.551514 125.926811,610.746887 110.820778,650.176025 
	C112.438522,650.645569 113.215790,651.067810 113.993362,651.068359 
	C141.651840,651.087830 169.310776,651.129211 196.967926,650.926819 
	C198.988174,650.912109 202.129318,649.590088 202.815231,648.027039 
	C206.055801,640.642395 208.623062,632.962341 211.779037,624.446777 
	C192.777145,624.446777 174.959091,624.446777 156.437012,624.446777 
	C157.890244,620.243835 158.968048,616.788696 160.268082,613.419373 
	C172.364853,582.068054 184.529587,550.742798 196.572708,519.370911 
	C197.648178,516.569397 198.006332,513.492554 198.740463,510.360809 
	C187.671112,510.360809 177.531311,510.215424 167.404892,510.517883 
	C165.889099,510.563110 163.749252,512.405701 163.075958,513.935364 
	C160.530594,519.717957 158.470673,525.714233 155.959763,532.356140 
M359.070221,462.753510 
	C365.731506,462.798859 372.406097,462.604004 379.049408,462.972992 
	C383.562927,463.223694 385.105499,461.867828 385.098755,457.155090 
	C385.070587,437.506317 385.481445,417.857269 385.654907,398.207672 
	C385.791626,382.720184 385.750916,367.230896 385.940186,351.744263 
	C385.983856,348.170166 384.910400,346.591431 381.089478,346.805542 
	C376.108185,347.084717 371.073517,346.591888 366.116272,347.037415 
	C363.921722,347.234650 361.069611,348.343964 359.855896,350.013367 
	C334.899597,384.339691 310.130951,418.802490 285.347565,453.254333 
	C283.437714,455.909210 281.694916,458.684204 278.878845,462.890533 
	C284.214355,462.890533 288.202545,462.348297 291.989136,462.992004 
	C303.435120,464.937836 311.678467,460.977142 316.694977,450.551147 
	C319.938751,443.809570 325.112000,441.943756 332.377930,442.559052 
	C340.392059,443.237762 348.507996,442.713989 356.290680,442.713989 
	C356.290680,448.400269 356.139496,453.227539 356.377350,458.035522 
	C356.454590,459.596497 357.549744,461.107056 359.070221,462.753510 
M793.657227,375.161682 
	C792.505981,378.970703 790.772888,382.710602 790.310669,386.601471 
	C788.823120,399.125061 795.066772,407.498383 808.630737,411.926483 
	C814.802246,413.941193 821.103638,415.617004 827.137695,417.978943 
	C834.065735,420.690826 835.628174,427.718933 830.194763,432.721619 
	C827.278564,435.406677 823.294678,437.684784 819.450439,438.468536 
	C807.767395,440.850555 796.889343,438.506073 787.839966,430.287628 
	C785.311340,427.991119 783.426147,427.922974 781.064087,430.261719 
	C777.395142,433.894562 773.559143,437.358154 769.864014,440.965240 
	C764.996582,445.716675 764.984070,447.110107 770.453430,451.045593 
	C789.519470,464.764740 810.431519,466.652374 832.192627,459.410431 
	C845.683472,454.920837 855.291809,445.396942 860.343079,432.087830 
	C868.300598,411.121674 862.304749,401.947662 844.839600,395.543182 
	C843.590515,395.085175 842.313782,394.700684 841.042969,394.304230 
	C835.959229,392.718201 830.751404,391.446320 825.816711,389.486176 
	C819.053589,386.799713 817.786438,381.094604 823.196045,376.238403 
	C826.269897,373.478943 830.397888,371.231110 834.408264,370.312927 
	C843.252136,368.288147 852.085632,369.425354 859.983215,374.149445 
	C863.360474,376.169647 865.306519,375.350098 867.658203,372.851044 
	C871.080200,369.214844 874.756042,365.817474 878.325684,362.320312 
	C882.042786,358.678833 881.762085,357.299530 877.234497,354.391907 
	C864.837280,346.430206 851.113037,344.832947 836.898987,346.110046 
	C817.575378,347.846283 802.992981,357.018677 793.657227,375.161682 
M1235.229980,605.665405 
	C1234.624023,607.392456 1234.061035,609.136108 1233.404907,610.843872 
	C1228.931885,622.487793 1224.420532,634.116943 1219.966797,645.768188 
	C1218.916748,648.515259 1218.310547,651.067993 1222.790527,651.065369 
	C1248.282349,651.050354 1273.775513,651.204285 1299.263794,650.914246 
	C1301.334473,650.890747 1304.169189,648.387878 1305.264526,646.308044 
	C1307.806641,641.481323 1309.581177,636.238098 1311.502808,631.102356 
	C1312.342285,628.859070 1312.779541,626.465393 1313.630127,623.274658 
	C1296.484619,623.274658 1280.268433,623.274658 1263.050903,623.274658 
	C1277.507446,585.213440 1291.611328,548.080811 1306.052124,510.061279 
	C1294.424194,510.061279 1284.304688,509.963654 1274.193115,510.201630 
	C1273.097168,510.227448 1271.550293,512.001465 1271.048462,513.290161 
	C1259.158936,543.824158 1247.384277,574.402893 1235.229980,605.665405 
M921.810913,563.397095 
	C928.508911,545.775818 935.206909,528.154541 942.184631,509.797363 
	C930.624512,509.797363 920.320129,509.646362 910.030090,509.962646 
	C908.514526,510.009247 906.346680,511.978821 905.707214,513.556030 
	C902.085510,522.487915 898.922363,531.604126 895.446838,540.597229 
	C882.550049,573.968628 869.586609,607.314270 856.666687,640.676819 
	C855.488220,643.719666 854.440674,646.813232 853.044922,650.679199 
	C864.640259,650.679199 875.387207,650.815308 886.120483,650.494507 
	C887.362427,650.457397 889.022827,648.075867 889.656128,646.455627 
	C900.369568,619.045410 910.951050,591.583557 921.810913,563.397095 
M1204.150513,539.489380 
	C1189.649536,576.180664 1175.148438,612.871887 1160.318726,650.394836 
	C1163.303833,650.627869 1165.060303,650.872009 1166.818481,650.883179 
	C1173.476685,650.925537 1180.135132,650.897888 1186.793579,650.885986 
	C1195.734863,650.869934 1195.731079,650.864319 1199.112183,642.368958 
	C1199.785767,640.676270 1200.528198,639.010803 1201.192261,637.314514 
	C1214.156860,604.200073 1227.147583,571.095886 1240.052002,537.958008 
	C1243.585938,528.882935 1246.856812,519.705383 1250.545410,509.775635 
	C1239.904907,509.775635 1230.274780,509.964478 1220.658569,509.679199 
	C1217.000732,509.570740 1215.234863,510.911713 1214.022461,514.152100 
	C1210.936035,522.401489 1207.631226,530.569153 1204.150513,539.489380 
M994.936829,376.555481 
	C994.592957,366.546967 990.534851,360.826080 981.283508,357.307617 
	C965.325806,351.238525 937.777527,360.574707 928.467163,376.607208 
	C922.269226,387.279999 918.186951,399.194580 913.361267,410.639191 
	C912.486084,412.714783 912.435608,415.194672 912.276855,417.506592 
	C911.289795,431.876953 919.333374,441.032288 933.674072,441.962891 
	C953.941406,443.278107 973.706238,432.038452 982.401428,413.555328 
	C986.566101,404.702545 989.792908,395.396637 993.191040,386.202301 
	C994.209778,383.445862 994.373108,380.373291 994.936829,376.555481 
M1251.715820,401.266388 
	C1257.256470,386.736969 1262.796997,372.207550 1268.751953,356.591858 
	C1262.256470,356.591858 1256.987427,356.842010 1251.755493,356.509003 
	C1247.890625,356.263031 1245.946777,357.937683 1244.652588,361.274414 
	C1241.403931,369.650391 1238.077759,377.997559 1234.653076,386.302826 
	C1234.138550,387.550629 1232.959106,389.426544 1232.032349,389.459259 
	C1224.666382,389.719421 1217.287354,389.604218 1209.488037,389.604218 
	C1213.835327,378.413574 1217.863525,368.044281 1222.286377,356.659119 
	C1215.308228,356.659119 1210.009644,356.838715 1204.730713,356.594086 
	C1201.376343,356.438690 1199.738892,357.620453 1198.489014,360.805054 
	C1188.952637,385.104401 1179.201172,409.319244 1169.558594,433.577087 
	C1168.799805,435.485748 1168.357300,437.520142 1167.564087,440.178711 
	C1173.832275,440.178711 1179.302124,439.910004 1184.731079,440.266083 
	C1188.870117,440.537567 1190.668457,438.756592 1191.942993,435.088318 
	C1194.834595,426.765259 1198.012329,418.537720 1201.274048,410.351227 
	C1201.785645,409.066956 1203.313965,407.325897 1204.428711,407.283417 
	C1211.682739,407.006989 1218.952271,407.141479 1227.015991,407.141479 
	C1222.674683,418.289917 1218.563965,428.846069 1214.170410,440.128204 
	C1220.650391,440.128204 1226.137451,439.870483 1231.586792,440.212860 
	C1235.662842,440.468933 1237.538086,438.771332 1238.855469,435.122742 
	C1242.867798,424.010071 1247.159790,412.998413 1251.715820,401.266388 
M1259.989990,425.328644 
	C1258.215088,429.925873 1256.440308,434.523102 1254.738037,438.932281 
	C1255.498657,439.541901 1255.748779,439.917999 1256.000854,439.919373 
	C1274.813965,440.021729 1293.627075,440.124847 1312.440186,440.095123 
	C1313.583984,440.093323 1315.397583,439.289581 1315.758179,438.397614 
	C1317.832520,433.265381 1319.562744,427.993958 1321.711670,421.915344 
	C1308.496704,421.915344 1296.293701,421.915344 1283.554321,421.915344 
	C1284.960693,418.102264 1286.298950,415.077362 1287.179565,411.924622 
	C1288.146484,408.462524 1290.114258,407.306458 1293.670776,407.394714 
	C1301.825684,407.596954 1309.990845,407.456268 1318.150024,407.333984 
	C1319.554321,407.312958 1321.823364,407.106140 1322.206421,406.288635 
	C1324.595825,401.188965 1326.562378,395.891113 1329.019043,389.789490 
	C1317.249146,389.789490 1307.025146,389.789490 1296.077515,389.789490 
	C1297.515381,385.788910 1298.920654,382.443298 1299.903564,378.977875 
	C1300.809570,375.784058 1302.385498,374.547974 1305.891968,374.646515 
	C1315.711182,374.922607 1325.543945,374.808777 1335.369385,374.690430 
	C1337.075317,374.669891 1339.779541,374.387604 1340.302612,373.354889 
	C1342.926270,368.175720 1344.978271,362.706940 1347.483032,356.739655 
	C1327.029297,356.739655 1308.083252,356.664124 1289.141113,356.896820 
	C1287.768188,356.913696 1285.761597,358.912048 1285.164429,360.428223 
	C1276.755127,381.778076 1268.539307,403.204071 1259.989990,425.328644 
M428.166229,457.835846 
	C429.204773,455.385040 430.311554,452.960632 431.271545,450.479431 
	C443.624481,418.552216 455.975555,386.624268 468.254272,354.668518 
	C469.149567,352.338593 469.481934,349.792358 470.249146,346.634094 
	C462.013947,346.634094 454.866882,346.843384 447.740143,346.553375 
	C443.651611,346.386993 441.605957,347.649750 440.098053,351.683380 
	C430.090027,378.454987 419.769592,405.109741 409.561157,431.806458 
	C405.783813,441.684906 402.034668,451.574127 397.856476,462.552002 
	C407.465424,462.552002 416.021637,462.702820 424.559448,462.374756 
	C425.720001,462.330170 426.788483,459.889374 428.166229,457.835846 
M1036.510498,356.447784 
	C1033.345703,356.494415 1030.143677,356.867950 1027.024414,356.513397 
	C1021.972656,355.939148 1019.738525,358.183258 1018.011292,362.786407 
	C1010.882202,381.785431 1003.315186,400.619690 995.982544,419.542969 
	C993.422180,426.150604 991.073792,432.840393 988.377930,440.174713 
	C994.872925,440.174713 1000.676636,439.960266 1006.454956,440.250885 
	C1010.248108,440.441681 1012.238342,439.045074 1013.507263,435.513947 
	C1016.207397,428.000305 1019.454529,420.678711 1022.016479,413.122101 
	C1023.094421,409.942841 1024.756836,409.125061 1027.785767,409.189667 
	C1033.946167,409.321014 1040.112061,409.187012 1046.275757,409.164612 
	C1056.150024,409.128723 1056.018311,409.071564 1059.947876,400.137238 
	C1064.031738,390.852051 1064.285034,391.238983 1054.138916,391.201782 
	C1046.427856,391.173492 1038.716431,391.196136 1030.383179,391.196136 
	C1032.231445,386.221161 1033.937500,382.259125 1035.144775,378.150482 
	C1035.908936,375.550018 1037.254272,374.814941 1039.789185,374.855988 
	C1047.117188,374.974792 1054.448486,374.886353 1061.778564,374.886627 
	C1076.131714,374.887146 1076.131714,374.889252 1081.463623,361.660309 
	C1083.292969,357.121826 1082.906616,356.463715 1077.982056,356.449341 
	C1064.490356,356.409943 1050.998413,356.442566 1036.510498,356.447784 
M1137.166626,428.866272 
	C1143.400879,412.727539 1149.701538,396.613892 1155.810913,380.428009 
	C1156.968140,377.362244 1158.414062,375.913574 1161.916260,376.165131 
	C1166.553833,376.498322 1171.239258,376.279266 1175.898315,376.125488 
	C1177.109497,376.085510 1179.045044,375.732880 1179.380859,374.967926 
	C1181.924316,369.170349 1184.152588,363.234528 1186.472412,357.359009 
	C1185.137085,356.852234 1184.828979,356.633148 1184.520630,356.632874 
	C1163.870239,356.613281 1143.219727,356.579956 1122.569824,356.684296 
	C1121.303589,356.690674 1119.358643,357.470673 1118.892700,358.446289 
	C1116.272339,363.931610 1114.008545,369.587311 1111.168213,376.252563 
	C1119.372070,376.252563 1126.403320,376.252563 1134.174316,376.252563 
	C1125.642822,397.965363 1117.476440,418.749084 1109.065186,440.155853 
	C1113.767212,440.155853 1117.738159,440.221802 1121.706299,440.143921 
	C1135.486084,439.873505 1131.693970,442.566406 1137.166626,428.866272 
z"/>
<path fill="#FAFAFB" opacity="1.000000" stroke="none" 
	d="
M707.345215,589.194641 
	C717.147766,563.873047 726.871399,538.933716 736.339783,513.897888 
	C737.527283,510.757843 739.220886,509.838531 742.189819,509.872955 
	C749.020508,509.952148 755.854858,510.047455 762.682861,509.903625 
	C766.212219,509.829315 767.764404,511.228516 768.200684,514.733826 
	C769.989929,529.108032 771.917297,543.465637 773.889038,557.816223 
	C774.454590,561.932861 775.208313,566.035889 776.143188,570.083374 
	C776.516968,571.701355 777.613403,573.152344 778.777466,575.468689 
	C781.530518,572.817261 783.679077,570.826721 785.740906,568.750000 
	C804.277283,550.080017 822.776245,531.372742 841.371033,512.761169 
	C842.697998,511.433014 844.670959,509.985992 846.383606,509.934814 
	C855.650330,509.657959 864.929565,509.803558 875.088379,509.803558 
	C871.867188,517.945557 868.856628,525.282349 866.050049,532.696350 
	C853.450073,565.981140 840.917542,599.291565 828.334290,632.582703 
	C826.512878,637.401794 824.736389,642.255249 822.546204,646.907837 
	C821.802124,648.488586 819.881104,650.557495 818.442139,650.601990 
	C808.172363,650.919739 797.888123,650.771545 786.655579,650.771545 
	C795.607910,627.350403 804.258728,604.718201 812.909485,582.086060 
	C812.357605,581.740051 811.805725,581.393982 811.253845,581.047974 
	C807.948059,584.478394 804.657043,587.923340 801.333618,591.336609 
	C791.459900,601.477356 781.454712,611.493713 771.746765,621.790527 
	C767.520874,626.272705 762.524536,625.908752 757.434326,624.935486 
	C756.344666,624.727112 755.199829,622.393921 754.895020,620.876038 
	C752.504089,608.967285 750.330017,597.015076 748.036804,585.086426 
	C747.709473,583.383667 747.101318,581.734863 745.521179,579.899719 
	C743.393372,585.383301 741.252686,590.861877 739.140015,596.351318 
	C732.688660,613.114136 726.317078,629.908447 719.698608,646.605042 
	C719.025330,648.303772 716.933960,650.574280 715.431641,650.627380 
	C705.329834,650.984192 695.209290,650.813171 684.134216,650.813171 
	C692.008728,629.886536 699.598389,609.716919 707.345215,589.194641 
z"/>
<path fill="#FBFAFB" opacity="1.000000" stroke="none" 
	d="
M352.182770,513.750610 
	C366.586670,521.978027 371.465912,532.669434 369.582153,549.416687 
	C368.027496,563.238647 362.167511,575.601624 357.372803,588.324402 
	C349.949097,608.022949 338.322906,624.797485 321.740021,637.992188 
	C309.452881,647.768799 295.301392,652.862366 279.819824,653.418091 
	C268.072876,653.839661 256.203125,653.824036 245.093475,648.394287 
	C233.731720,642.841309 227.473572,633.727905 227.857193,621.469727 
	C228.137802,612.502808 230.063248,603.300110 232.935379,594.768005 
	C237.375671,581.577576 242.420456,568.450317 248.692993,556.046753 
	C261.096710,531.519043 280.860413,515.619446 308.208099,510.393280 
	C322.912445,507.583221 337.664337,507.591248 352.182770,513.750610 
M305.634216,614.126160 
	C316.000488,602.927795 320.466278,588.684082 325.621490,574.859070 
	C328.276947,567.737732 330.847443,560.427612 332.093018,552.974915 
	C333.909119,542.108276 328.585327,536.900024 317.488739,536.826721 
	C303.748749,536.736023 294.234680,543.945923 286.956177,554.601257 
	C276.596436,569.767395 271.785156,587.332214 266.296143,604.557312 
	C265.506104,607.036560 265.353729,609.799500 265.345428,612.432495 
	C265.318268,621.028748 269.699493,625.513672 278.352203,626.264709 
	C289.407593,627.224304 298.005829,622.636475 305.634216,614.126160 
z"/>
<path fill="#FAFAFA" opacity="1.000000" stroke="none" 
	d="
M1369.000000,650.948120 
	C1352.840088,650.942261 1337.180298,650.952820 1321.520386,650.920288 
	C1316.073608,650.908997 1315.525635,650.260498 1317.475342,645.175842 
	C1328.483398,616.468872 1339.648071,587.821838 1350.617065,559.099976 
	C1355.897949,545.272278 1360.937866,531.350952 1365.947998,517.421997 
	C1368.607178,510.028992 1369.438843,509.124542 1377.408813,509.032074 
	C1389.401978,508.892914 1401.397705,508.969238 1413.392334,508.967377 
	C1426.053589,508.965424 1438.714722,508.968567 1451.375977,508.998016 
	C1453.165405,509.002167 1454.954590,509.167877 1457.979004,509.321564 
	C1456.318970,514.497803 1455.069336,519.044617 1453.414917,523.438965 
	C1446.978149,540.534729 1451.170532,537.319641 1433.524170,537.556091 
	C1421.364868,537.719055 1409.199341,537.765564 1397.042236,537.551880 
	C1393.351685,537.487061 1391.813965,538.831543 1390.671631,542.214233 
	C1388.139526,549.711365 1385.112671,557.041382 1382.055786,565.046387 
	C1394.183716,565.046387 1405.462524,565.045044 1416.741333,565.047119 
	C1420.572754,565.047852 1424.404663,565.095581 1428.235474,565.049255 
	C1430.796631,565.018250 1432.191895,565.987183 1431.251587,568.660828 
	C1428.657227,576.037964 1426.015625,583.400146 1423.256226,590.716797 
	C1422.108643,593.759583 1419.702393,594.539795 1416.453857,594.504333 
	C1402.796387,594.355225 1389.134766,594.588867 1375.477051,594.453430 
	C1372.025635,594.419250 1370.643921,595.671265 1369.542114,598.927490 
	C1366.893311,606.755554 1363.643677,614.380371 1360.241333,623.099854 
	C1380.393677,623.099854 1399.715088,623.099854 1419.857300,623.099854 
	C1419.004272,626.765808 1418.588013,629.527039 1417.698730,632.126465 
	C1416.624268,635.267456 1415.059082,638.236816 1413.863281,641.340881 
	C1410.122681,651.051208 1410.151489,651.031738 1399.987061,650.983459 
	C1389.824829,650.935242 1379.662354,650.956665 1369.000000,650.948120 
z"/>
<path fill="#FAFAFA" opacity="1.000000" stroke="none" 
	d="
M400.640320,528.631226 
	C413.885864,515.672485 429.992371,509.919250 447.637878,508.241547 
	C463.300293,506.752441 478.566772,508.726593 492.859924,515.886230 
	C502.436096,520.683105 502.510223,521.332764 494.681915,528.617065 
	C490.414398,532.588013 486.177917,536.595764 482.032104,540.692932 
	C479.767487,542.930969 478.017944,543.463867 474.810699,541.580872 
	C462.485443,534.344543 449.197723,533.129822 435.946564,538.333008 
	C431.801025,539.960754 428.026306,543.857544 425.369263,547.623901 
	C421.867615,552.587524 423.808136,557.851746 429.464386,560.326904 
	C434.322876,562.453003 439.570160,563.673401 444.505829,565.644287 
	C451.731598,568.529602 459.259460,571.010559 465.888275,574.957520 
	C476.250427,581.127380 479.394897,590.228149 476.737640,602.010010 
	C471.232574,626.418457 456.013489,642.065369 432.271240,648.510559 
	C405.812408,655.693298 380.415375,653.125183 357.736542,636.047302 
	C352.100403,631.803101 352.157471,631.662415 357.273438,626.972961 
	C362.306885,622.359253 367.360901,617.748840 372.106659,612.847229 
	C375.270477,609.579468 377.459656,609.952454 380.897095,612.775513 
	C393.916534,623.467896 408.896179,626.488037 424.851990,621.281372 
	C429.372894,619.806091 433.647552,615.876770 436.708649,612.020081 
	C441.464203,606.028625 439.859558,599.672852 432.944885,596.303345 
	C426.856476,593.336426 420.208374,591.520630 413.814514,589.177246 
	C409.601440,587.633240 405.237762,586.389709 401.223633,584.432861 
	C385.723297,576.876709 380.621094,564.087585 387.722137,548.434021 
	C390.894379,541.441101 396.110535,535.375366 400.640320,528.631226 
z"/>
<path fill="#FAFAFA" opacity="1.000000" stroke="none" 
	d="
M1117.505615,511.520752 
	C1135.050049,506.623901 1152.186279,507.132477 1169.112183,512.210266 
	C1173.972900,513.668518 1178.430664,516.534546 1182.987427,518.919006 
	C1186.067139,520.530640 1186.415039,522.559875 1183.680664,525.105103 
	C1177.830322,530.550720 1172.222900,536.262939 1166.243652,541.558533 
	C1165.243408,542.444397 1162.466064,542.473877 1161.200439,541.727783 
	C1151.065674,535.753662 1140.203491,534.606323 1128.854858,536.317139 
	C1122.744629,537.238281 1117.399780,539.789490 1113.252441,544.501465 
	C1107.452271,551.091492 1108.897583,557.971008 1117.056763,561.118347 
	C1123.569580,563.630676 1130.362183,565.408813 1136.928101,567.794983 
	C1141.283691,569.377930 1145.708618,571.038086 1149.668579,573.393250 
	C1162.931519,581.281555 1166.353027,591.650696 1161.278809,607.200256 
	C1152.922485,632.808044 1129.982178,649.922241 1101.340332,651.681519 
	C1080.340820,652.971375 1060.496338,649.696899 1043.293335,636.362061 
	C1037.551025,631.911072 1037.434937,631.427429 1042.725464,626.457336 
	C1047.458618,622.010864 1052.300171,617.661377 1056.779297,612.968933 
	C1059.956421,609.640747 1062.437256,609.491455 1066.088623,612.476562 
	C1079.399170,623.358093 1094.369019,626.753418 1110.959229,621.283936 
	C1116.776611,619.366089 1121.061035,615.591797 1123.724609,610.056702 
	C1126.078613,605.165100 1125.549072,601.310791 1120.981689,598.271484 
	C1117.031250,595.642761 1112.476807,593.818970 1108.015625,592.086792 
	C1102.438965,589.921570 1096.604248,588.422302 1091.021240,586.271240 
	C1071.474731,578.740662 1065.793701,563.876465 1075.186523,544.980042 
	C1083.949585,527.350281 1098.008179,516.308655 1117.505615,511.520752 
z"/>
<path fill="#FAFAFA" opacity="1.000000" stroke="none" 
	d="
M956.259399,536.278076 
	C970.001404,517.485229 989.306885,510.058472 1011.161865,508.170563 
	C1024.889038,506.984802 1038.469849,508.439545 1051.243408,514.186768 
	C1054.409546,515.611267 1057.339478,517.572021 1060.338623,519.352539 
	C1062.628052,520.711731 1062.679199,522.423584 1060.823730,524.210449 
	C1054.586426,530.217346 1048.412476,536.296326 1041.972168,542.078064 
	C1041.135742,542.828918 1038.554810,542.549255 1037.336670,541.820129 
	C1025.954834,535.007874 1013.748352,533.498291 1001.298523,537.239197 
	C996.671936,538.629395 992.238464,542.102295 988.800171,545.669495 
	C983.645020,551.017944 985.203796,557.708069 992.045105,560.679016 
	C997.972168,563.252991 1004.330933,564.815430 1010.429016,567.018311 
	C1014.799011,568.597046 1019.284119,570.080505 1023.319153,572.323669 
	C1039.236206,581.172546 1043.069092,593.294189 1036.143677,610.182922 
	C1026.001099,634.916687 1007.396179,648.342407 981.211609,651.232422 
	C958.835938,653.701965 937.676147,650.255981 919.361206,635.880493 
	C918.315613,635.059875 917.253967,634.239868 916.327698,633.294312 
	C915.771912,632.726868 915.464417,631.916199 914.852966,630.893005 
	C921.875000,624.236145 928.747070,617.522705 935.930481,611.160889 
	C936.836487,610.358459 939.969177,610.730286 941.072571,611.696899 
	C952.749695,621.927002 966.114502,625.683289 981.358643,622.946167 
	C988.537781,621.657104 994.636902,618.555725 998.642212,612.246460 
	C1002.852356,605.614502 1001.408630,599.422729 994.300415,596.070435 
	C988.463379,593.317444 982.159912,591.554932 976.068176,589.339722 
	C972.167175,587.921143 968.133728,586.774170 964.403564,584.994324 
	C947.729004,577.038147 942.905029,563.996277 950.355164,547.093323 
	C951.958496,543.455505 954.138794,540.071960 956.259399,536.278076 
z"/>
<path fill="#F9F9FA" opacity="1.000000" stroke="none" 
	d="
M470.762268,413.557068 
	C478.899567,392.046082 486.850372,370.876984 494.985687,349.779022 
	C495.510376,348.418365 497.487122,346.648071 498.740784,346.684998 
	C514.843994,347.159454 531.142029,346.579498 546.983093,348.969086 
	C566.189575,351.866302 574.223083,364.162964 569.539673,382.826355 
	C564.568054,402.638306 557.783081,422.015198 545.881042,439.090393 
	C534.693481,455.140625 518.912720,462.363617 499.837341,462.818054 
	C485.854889,463.151154 471.855347,462.709534 457.867523,462.905151 
	C453.073303,462.972168 452.540741,461.171234 454.052460,457.258392 
	C459.626434,442.830811 465.104370,428.366150 470.762268,413.557068 
M539.796631,381.025330 
	C539.268799,374.932983 535.117432,372.368347 529.825195,371.613495 
	C525.913147,371.055511 521.858459,371.582672 517.882812,371.355621 
	C515.262512,371.205872 514.204529,372.248413 513.319031,374.670837 
	C509.039459,386.377380 504.501831,397.989410 500.079834,409.644073 
	C496.556244,418.930786 493.067352,428.230621 489.306122,438.206085 
	C493.187866,438.206085 496.295624,438.237762 499.402527,438.200256 
	C509.701874,438.075958 519.182007,434.958405 523.693420,425.382172 
	C529.950928,412.099426 534.616882,398.065826 539.905090,384.330933 
	C540.181458,383.613190 539.905945,382.682983 539.796631,381.025330 
z"/>
<path fill="#F9F9F9" opacity="1.000000" stroke="none" 
	d="
M669.005981,430.814087 
	C679.272095,404.067993 689.468323,377.710907 699.395386,351.252777 
	C700.776489,347.571686 702.790833,346.456055 706.389709,346.494049 
	C718.375854,346.620575 730.373291,346.304840 742.346497,346.725220 
	C747.419678,346.903351 752.627197,347.935944 757.455566,349.538544 
	C772.817261,354.637299 778.574158,366.271667 773.600647,381.748383 
	C768.522949,397.549133 758.567932,409.054047 742.705383,414.652710 
	C738.772278,416.040894 738.552490,417.888275 739.411926,421.254517 
	C742.455994,433.178253 745.344727,445.141937 748.249329,457.100922 
	C749.483704,462.183411 748.986328,462.744354 743.506714,462.790009 
	C737.845947,462.837158 732.185059,462.870483 726.524170,462.890137 
	C719.152527,462.915741 719.293884,462.880676 717.960571,455.825867 
	C715.676636,443.741425 713.196106,431.694092 710.801453,419.648315 
	C702.664062,417.893829 701.885315,418.227295 699.100891,425.575745 
	C694.977295,436.458466 690.859802,447.345947 686.967773,458.312347 
	C685.764648,461.702026 683.815979,462.988831 680.317444,462.920288 
	C672.750488,462.771973 665.178589,462.874664 656.356262,462.874664 
	C660.866150,451.431213 664.858398,441.301117 669.005981,430.814087 
M711.052917,392.598450 
	C710.820251,393.627472 710.587585,394.656464 710.269165,396.064514 
	C716.540955,396.064514 722.365173,396.361908 728.146606,395.991608 
	C735.941223,395.492340 742.793945,389.750885 745.054138,382.474670 
	C746.969360,376.308838 744.758301,372.001282 738.374390,371.224731 
	C732.641785,370.527435 726.770081,370.808929 720.969971,370.989166 
	C719.962891,371.020447 718.550720,372.513153 718.103455,373.639618 
	C715.713806,379.658569 713.571045,385.775513 711.052917,392.598450 
z"/>
<path fill="#F9F9F9" opacity="1.000000" stroke="none" 
	d="
M274.572357,459.219299 
	C273.803223,460.691650 272.958069,462.660522 272.047760,462.691162 
	C264.230469,462.954041 256.391418,463.071747 248.585220,462.691711 
	C247.205582,462.624542 245.119446,460.221832 244.770233,458.594849 
	C242.646423,448.700348 240.917740,438.720551 239.086960,428.763794 
	C238.519119,425.675507 238.043991,422.570160 237.537079,419.536469 
	C236.775055,419.292633 236.326279,419.036133 235.868729,419.019409 
	C228.074005,418.733643 228.074524,418.740479 225.352264,425.917877 
	C221.225189,436.799103 217.176788,447.711578 212.883499,458.526855 
	C212.234772,460.161011 210.492905,462.487396 209.171570,462.545135 
	C200.772034,462.911926 192.348602,462.731598 183.005096,462.731598 
	C186.987366,452.120056 190.626663,442.379822 194.296661,432.651154 
	C204.568848,405.421082 214.806107,378.177490 225.241394,351.010010 
	C225.933380,349.208435 228.169739,346.714813 229.688477,346.714325 
	C245.314850,346.709229 260.944275,347.062286 276.565063,347.559906 
	C279.140350,347.641907 281.755249,348.704803 284.220459,349.655090 
	C299.303680,355.469513 304.605774,367.135132 299.408325,382.539062 
	C294.197693,397.982056 284.139221,408.877411 268.968384,414.784515 
	C265.386871,416.179016 264.586884,417.761993 265.522003,421.426819 
	C268.690063,433.842651 271.511963,446.346832 274.572357,459.219299 
M267.895905,388.308899 
	C268.792053,386.911621 269.857941,385.593842 270.555481,384.103607 
	C273.881134,376.998383 271.244995,371.956940 263.512665,370.860260 
	C260.742737,370.467377 257.886688,370.610168 255.070648,370.626862 
	C245.241318,370.685150 245.226578,370.699615 241.933594,380.080719 
	C240.112000,385.270111 238.350006,390.480377 236.383667,396.197205 
	C241.969070,396.197205 246.600098,396.253662 251.229187,396.183533 
	C257.666656,396.085999 263.280609,394.073303 267.895905,388.308899 
z"/>
<path fill="#FAFAFA" opacity="1.000000" stroke="none" 
	d="
M549.686890,626.820251 
	C546.757019,633.948303 544.104004,640.777710 541.037476,647.416138 
	C540.347290,648.910278 538.236206,650.683716 536.741272,650.719055 
	C526.754944,650.955139 516.758240,650.763123 506.765228,650.668640 
	C506.335785,650.664490 505.910217,650.253174 504.758850,649.656006 
	C519.106567,612.560852 533.458496,575.454895 548.198975,537.344360 
	C535.894958,537.344360 524.426392,537.344360 511.703308,537.344360 
	C515.584778,527.810547 518.724792,519.279419 522.673279,511.140564 
	C523.399475,509.643585 527.400818,509.192413 529.894897,509.180298 
	C554.553040,509.060242 579.212036,509.136017 603.870850,509.153137 
	C611.488708,509.158417 619.106506,509.153900 627.836853,509.153900 
	C624.514038,518.594971 621.631409,527.197754 618.328674,535.636047 
	C617.925293,536.666626 615.276306,537.263794 613.652283,537.296997 
	C604.659302,537.481079 595.659424,537.545837 586.666382,537.391479 
	C583.601501,537.338867 582.385132,538.583740 581.374695,541.333618 
	C570.938049,569.737305 560.355835,598.087463 549.686890,626.820251 
z"/>
<path fill="#F9F9F9" opacity="1.000000" stroke="none" 
	d="
M633.032837,370.913055 
	C621.538818,371.002228 621.538452,371.002106 617.671753,381.637726 
	C616.324158,385.344360 614.978516,389.051758 613.296631,393.682159 
	C627.304749,393.682159 640.525391,393.682159 655.040100,393.682159 
	C653.448303,398.700928 652.350769,402.763641 650.878845,406.685852 
	C646.947021,417.162842 646.883118,417.131317 635.488281,417.137939 
	C626.988708,417.142883 618.485107,417.330658 609.991394,417.115875 
	C606.150330,417.018677 604.056885,417.939484 602.968018,422.052521 
	C601.534851,427.466125 599.126526,432.621613 596.782166,438.828796 
	C613.662231,438.828796 629.829102,438.828796 647.326355,438.828796 
	C644.192688,446.979218 641.621399,454.072601 638.640137,460.989258 
	C638.185791,462.043274 635.833679,462.808685 634.356445,462.813385 
	C610.358459,462.889801 586.360046,462.825714 562.361755,462.765015 
	C561.739014,462.763428 561.117065,462.442352 559.867676,462.096893 
	C561.055969,458.548431 562.074646,455.125702 563.337585,451.795593 
	C573.537964,424.898438 583.779175,398.016754 594.020203,371.135010 
	C596.687561,364.133362 599.225525,357.072968 602.217590,350.211639 
	C602.905090,348.635193 605.208496,346.745575 606.786865,346.728485 
	C629.449341,346.483551 652.114990,346.526550 674.779907,346.544830 
	C675.706116,346.545563 676.631958,346.983856 678.075867,347.349426 
	C675.604370,354.543243 673.455933,361.506622 670.703003,368.222198 
	C670.138855,369.598328 667.326233,370.764191 665.523071,370.804016 
	C654.862244,371.039307 644.193359,370.913696 633.032837,370.913055 
z"/>
<path fill="#FAFAFA" opacity="1.000000" stroke="none" 
	d="
M156.094421,531.993347 
	C158.470673,525.714233 160.530594,519.717957 163.075958,513.935364 
	C163.749252,512.405701 165.889099,510.563110 167.404892,510.517883 
	C177.531311,510.215424 187.671112,510.360809 198.740463,510.360809 
	C198.006332,513.492554 197.648178,516.569397 196.572708,519.370911 
	C184.529587,550.742798 172.364853,582.068054 160.268082,613.419373 
	C158.968048,616.788696 157.890244,620.243835 156.437012,624.446777 
	C174.959091,624.446777 192.777145,624.446777 211.779037,624.446777 
	C208.623062,632.962341 206.055801,640.642395 202.815231,648.027039 
	C202.129318,649.590088 198.988174,650.912109 196.967926,650.926819 
	C169.310776,651.129211 141.651840,651.087830 113.993362,651.068359 
	C113.215790,651.067810 112.438522,650.645569 110.820778,650.176025 
	C125.926811,610.746887 140.943298,571.551514 156.094421,531.993347 
z"/>
<path fill="#F9F9FA" opacity="1.000000" stroke="none" 
	d="
M358.624756,462.697083 
	C357.549744,461.107056 356.454590,459.596497 356.377350,458.035522 
	C356.139496,453.227539 356.290680,448.400269 356.290680,442.713989 
	C348.507996,442.713989 340.392059,443.237762 332.377930,442.559052 
	C325.112000,441.943756 319.938751,443.809570 316.694977,450.551147 
	C311.678467,460.977142 303.435120,464.937836 291.989136,462.992004 
	C288.202545,462.348297 284.214355,462.890533 278.878845,462.890533 
	C281.694916,458.684204 283.437714,455.909210 285.347565,453.254333 
	C310.130951,418.802490 334.899597,384.339691 359.855896,350.013367 
	C361.069611,348.343964 363.921722,347.234650 366.116272,347.037415 
	C371.073517,346.591888 376.108185,347.084717 381.089478,346.805542 
	C384.910400,346.591431 385.983856,348.170166 385.940186,351.744263 
	C385.750916,367.230896 385.791626,382.720184 385.654907,398.207672 
	C385.481445,417.857269 385.070587,437.506317 385.098755,457.155090 
	C385.105499,461.867828 383.562927,463.223694 379.049408,462.972992 
	C372.406097,462.604004 365.731506,462.798859 358.624756,462.697083 
M359.020233,412.451447 
	C359.020233,405.117676 359.020233,397.783875 359.020233,389.647186 
	C351.885254,399.524475 345.098114,408.920227 337.976990,418.778351 
	C345.364166,418.778351 351.854492,418.778351 358.549042,418.778351 
	C358.724030,416.651337 358.858429,415.017365 359.020233,412.451447 
z"/>
<path fill="#F9F9F9" opacity="1.000000" stroke="none" 
	d="
M793.816223,374.820251 
	C802.992981,357.018677 817.575378,347.846283 836.898987,346.110046 
	C851.113037,344.832947 864.837280,346.430206 877.234497,354.391907 
	C881.762085,357.299530 882.042786,358.678833 878.325684,362.320312 
	C874.756042,365.817474 871.080200,369.214844 867.658203,372.851044 
	C865.306519,375.350098 863.360474,376.169647 859.983215,374.149445 
	C852.085632,369.425354 843.252136,368.288147 834.408264,370.312927 
	C830.397888,371.231110 826.269897,373.478943 823.196045,376.238403 
	C817.786438,381.094604 819.053589,386.799713 825.816711,389.486176 
	C830.751404,391.446320 835.959229,392.718201 841.042969,394.304230 
	C842.313782,394.700684 843.590515,395.085175 844.839600,395.543182 
	C862.304749,401.947662 868.300598,411.121674 860.343079,432.087830 
	C855.291809,445.396942 845.683472,454.920837 832.192627,459.410431 
	C810.431519,466.652374 789.519470,464.764740 770.453430,451.045593 
	C764.984070,447.110107 764.996582,445.716675 769.864014,440.965240 
	C773.559143,437.358154 777.395142,433.894562 781.064087,430.261719 
	C783.426147,427.922974 785.311340,427.991119 787.839966,430.287628 
	C796.889343,438.506073 807.767395,440.850555 819.450439,438.468536 
	C823.294678,437.684784 827.278564,435.406677 830.194763,432.721619 
	C835.628174,427.718933 834.065735,420.690826 827.137695,417.978943 
	C821.103638,415.617004 814.802246,413.941193 808.630737,411.926483 
	C795.066772,407.498383 788.823120,399.125061 790.310669,386.601471 
	C790.772888,382.710602 792.505981,378.970703 793.816223,374.820251 
z"/>
<path fill="#FAFAFA" opacity="1.000000" stroke="none" 
	d="
M1235.409180,605.319458 
	C1247.384277,574.402893 1259.158936,543.824158 1271.048462,513.290161 
	C1271.550293,512.001465 1273.097168,510.227448 1274.193115,510.201630 
	C1284.304688,509.963654 1294.424194,510.061279 1306.052124,510.061279 
	C1291.611328,548.080811 1277.507446,585.213440 1263.050903,623.274658 
	C1280.268433,623.274658 1296.484619,623.274658 1313.630127,623.274658 
	C1312.779541,626.465393 1312.342285,628.859070 1311.502808,631.102356 
	C1309.581177,636.238098 1307.806641,641.481323 1305.264526,646.308044 
	C1304.169189,648.387878 1301.334473,650.890747 1299.263794,650.914246 
	C1273.775513,651.204285 1248.282349,651.050354 1222.790527,651.065369 
	C1218.310547,651.067993 1218.916748,648.515259 1219.966797,645.768188 
	C1224.420532,634.116943 1228.931885,622.487793 1233.404907,610.843872 
	C1234.061035,609.136108 1234.624023,607.392456 1235.409180,605.319458 
z"/>
<path fill="#FAFAFA" opacity="1.000000" stroke="none" 
	d="
M921.686279,563.765137 
	C910.951050,591.583557 900.369568,619.045410 889.656128,646.455627 
	C889.022827,648.075867 887.362427,650.457397 886.120483,650.494507 
	C875.387207,650.815308 864.640259,650.679199 853.044922,650.679199 
	C854.440674,646.813232 855.488220,643.719666 856.666687,640.676819 
	C869.586609,607.314270 882.550049,573.968628 895.446838,540.597229 
	C898.922363,531.604126 902.085510,522.487915 905.707214,513.556030 
	C906.346680,511.978821 908.514526,510.009247 910.030090,509.962646 
	C920.320129,509.646362 930.624512,509.797363 942.184631,509.797363 
	C935.206909,528.154541 928.508911,545.775818 921.686279,563.765137 
z"/>
<path fill="#FAFAFA" opacity="1.000000" stroke="none" 
	d="
M1204.282227,539.129456 
	C1207.631226,530.569153 1210.936035,522.401489 1214.022461,514.152100 
	C1215.234863,510.911713 1217.000732,509.570740 1220.658569,509.679199 
	C1230.274780,509.964478 1239.904907,509.775635 1250.545410,509.775635 
	C1246.856812,519.705383 1243.585938,528.882935 1240.052002,537.958008 
	C1227.147583,571.095886 1214.156860,604.200073 1201.192261,637.314514 
	C1200.528198,639.010803 1199.785767,640.676270 1199.112183,642.368958 
	C1195.731079,650.864319 1195.734863,650.869934 1186.793579,650.885986 
	C1180.135132,650.897888 1173.476685,650.925537 1166.818481,650.883179 
	C1165.060303,650.872009 1163.303833,650.627869 1160.318726,650.394836 
	C1175.148438,612.871887 1189.649536,576.180664 1204.282227,539.129456 
z"/>
<path fill="#F9F9F9" opacity="1.000000" stroke="none" 
	d="
M994.932617,377.000519 
	C994.373108,380.373291 994.209778,383.445862 993.191040,386.202301 
	C989.792908,395.396637 986.566101,404.702545 982.401428,413.555328 
	C973.706238,432.038452 953.941406,443.278107 933.674072,441.962891 
	C919.333374,441.032288 911.289795,431.876953 912.276855,417.506592 
	C912.435608,415.194672 912.486084,412.714783 913.361267,410.639191 
	C918.186951,399.194580 922.269226,387.279999 928.467163,376.607208 
	C937.777527,360.574707 965.325806,351.238525 981.283508,357.307617 
	C990.534851,360.826080 994.592957,366.546967 994.932617,377.000519 
M964.501160,399.039398 
	C966.265930,394.381653 968.295349,389.803833 969.731445,385.046875 
	C971.728027,378.433014 967.732239,373.622192 961.118164,375.457703 
	C956.792786,376.658112 951.346741,379.255707 949.479126,382.833466 
	C944.374634,392.612030 940.386047,403.074646 936.973267,413.596466 
	C934.948975,419.837250 939.585022,423.603790 946.211426,422.283722 
	C952.852295,420.960693 956.933289,416.587708 959.656311,410.774353 
	C961.341064,407.177856 962.674072,403.416656 964.501160,399.039398 
z"/>
<path fill="#F9F9F9" opacity="1.000000" stroke="none" 
	d="
M1251.529297,401.606934 
	C1247.159790,412.998413 1242.867798,424.010071 1238.855469,435.122742 
	C1237.538086,438.771332 1235.662842,440.468933 1231.586792,440.212860 
	C1226.137451,439.870483 1220.650391,440.128204 1214.170410,440.128204 
	C1218.563965,428.846069 1222.674683,418.289917 1227.015991,407.141479 
	C1218.952271,407.141479 1211.682739,407.006989 1204.428711,407.283417 
	C1203.313965,407.325897 1201.785645,409.066956 1201.274048,410.351227 
	C1198.012329,418.537720 1194.834595,426.765259 1191.942993,435.088318 
	C1190.668457,438.756592 1188.870117,440.537567 1184.731079,440.266083 
	C1179.302124,439.910004 1173.832275,440.178711 1167.564087,440.178711 
	C1168.357300,437.520142 1168.799805,435.485748 1169.558594,433.577087 
	C1179.201172,409.319244 1188.952637,385.104401 1198.489014,360.805054 
	C1199.738892,357.620453 1201.376343,356.438690 1204.730713,356.594086 
	C1210.009644,356.838715 1215.308228,356.659119 1222.286377,356.659119 
	C1217.863525,368.044281 1213.835327,378.413574 1209.488037,389.604218 
	C1217.287354,389.604218 1224.666382,389.719421 1232.032349,389.459259 
	C1232.959106,389.426544 1234.138550,387.550629 1234.653076,386.302826 
	C1238.077759,377.997559 1241.403931,369.650391 1244.652588,361.274414 
	C1245.946777,357.937683 1247.890625,356.263031 1251.755493,356.509003 
	C1256.987427,356.842010 1262.256470,356.591858 1268.751953,356.591858 
	C1262.796997,372.207550 1257.256470,386.736969 1251.529297,401.606934 
z"/>
<path fill="#F9F9F9" opacity="1.000000" stroke="none" 
	d="
M1260.133301,424.970123 
	C1268.539307,403.204071 1276.755127,381.778076 1285.164429,360.428223 
	C1285.761597,358.912048 1287.768188,356.913696 1289.141113,356.896820 
	C1308.083252,356.664124 1327.029297,356.739655 1347.483032,356.739655 
	C1344.978271,362.706940 1342.926270,368.175720 1340.302612,373.354889 
	C1339.779541,374.387604 1337.075317,374.669891 1335.369385,374.690430 
	C1325.543945,374.808777 1315.711182,374.922607 1305.891968,374.646515 
	C1302.385498,374.547974 1300.809570,375.784058 1299.903564,378.977875 
	C1298.920654,382.443298 1297.515381,385.788910 1296.077515,389.789490 
	C1307.025146,389.789490 1317.249146,389.789490 1329.019043,389.789490 
	C1326.562378,395.891113 1324.595825,401.188965 1322.206421,406.288635 
	C1321.823364,407.106140 1319.554321,407.312958 1318.150024,407.333984 
	C1309.990845,407.456268 1301.825684,407.596954 1293.670776,407.394714 
	C1290.114258,407.306458 1288.146484,408.462524 1287.179565,411.924622 
	C1286.298950,415.077362 1284.960693,418.102264 1283.554321,421.915344 
	C1296.293701,421.915344 1308.496704,421.915344 1321.711670,421.915344 
	C1319.562744,427.993958 1317.832520,433.265381 1315.758179,438.397614 
	C1315.397583,439.289581 1313.583984,440.093323 1312.440186,440.095123 
	C1293.627075,440.124847 1274.813965,440.021729 1256.000854,439.919373 
	C1255.748779,439.917999 1255.498657,439.541901 1254.738037,438.932281 
	C1256.440308,434.523102 1258.215088,429.925873 1260.133301,424.970123 
z"/>
<path fill="#F9F9F9" opacity="1.000000" stroke="none" 
	d="
M428.032898,458.196960 
	C426.788483,459.889374 425.720001,462.330170 424.559448,462.374756 
	C416.021637,462.702820 407.465424,462.552002 397.856476,462.552002 
	C402.034668,451.574127 405.783813,441.684906 409.561157,431.806458 
	C419.769592,405.109741 430.090027,378.454987 440.098053,351.683380 
	C441.605957,347.649750 443.651611,346.386993 447.740143,346.553375 
	C454.866882,346.843384 462.013947,346.634094 470.249146,346.634094 
	C469.481934,349.792358 469.149567,352.338593 468.254272,354.668518 
	C455.975555,386.624268 443.624481,418.552216 431.271545,450.479431 
	C430.311554,452.960632 429.204773,455.385040 428.032898,458.196960 
z"/>
<path fill="#F8F8F8" opacity="1.000000" stroke="none" 
	d="
M1037.008545,356.447205 
	C1050.998413,356.442566 1064.490356,356.409943 1077.982056,356.449341 
	C1082.906616,356.463715 1083.292969,357.121826 1081.463623,361.660309 
	C1076.131714,374.889252 1076.131714,374.887146 1061.778564,374.886627 
	C1054.448486,374.886353 1047.117188,374.974792 1039.789185,374.855988 
	C1037.254272,374.814941 1035.908936,375.550018 1035.144775,378.150482 
	C1033.937500,382.259125 1032.231445,386.221161 1030.383179,391.196136 
	C1038.716431,391.196136 1046.427856,391.173492 1054.138916,391.201782 
	C1064.285034,391.238983 1064.031738,390.852051 1059.947876,400.137238 
	C1056.018311,409.071564 1056.150024,409.128723 1046.275757,409.164612 
	C1040.112061,409.187012 1033.946167,409.321014 1027.785767,409.189667 
	C1024.756836,409.125061 1023.094421,409.942841 1022.016479,413.122101 
	C1019.454529,420.678711 1016.207397,428.000305 1013.507263,435.513947 
	C1012.238342,439.045074 1010.248108,440.441681 1006.454956,440.250885 
	C1000.676636,439.960266 994.872925,440.174713 988.377930,440.174713 
	C991.073792,432.840393 993.422180,426.150604 995.982544,419.542969 
	C1003.315186,400.619690 1010.882202,381.785431 1018.011292,362.786407 
	C1019.738525,358.183258 1021.972656,355.939148 1027.024414,356.513397 
	C1030.143677,356.867950 1033.345703,356.494415 1037.008545,356.447205 
z"/>
<path fill="#F9F9FA" opacity="1.000000" stroke="none" 
	d="
M1137.056641,429.239471 
	C1131.693970,442.566406 1135.486084,439.873505 1121.706299,440.143921 
	C1117.738159,440.221802 1113.767212,440.155853 1109.065186,440.155853 
	C1117.476440,418.749084 1125.642822,397.965363 1134.174316,376.252563 
	C1126.403320,376.252563 1119.372070,376.252563 1111.168213,376.252563 
	C1114.008545,369.587311 1116.272339,363.931610 1118.892700,358.446289 
	C1119.358643,357.470673 1121.303589,356.690674 1122.569824,356.684296 
	C1143.219727,356.579956 1163.870239,356.613281 1184.520630,356.632874 
	C1184.828979,356.633148 1185.137085,356.852234 1186.472412,357.359009 
	C1184.152588,363.234528 1181.924316,369.170349 1179.380859,374.967926 
	C1179.045044,375.732880 1177.109497,376.085510 1175.898315,376.125488 
	C1171.239258,376.279266 1166.553833,376.498322 1161.916260,376.165131 
	C1158.414062,375.913574 1156.968140,377.362244 1155.810913,380.428009 
	C1149.701538,396.613892 1143.400879,412.727539 1137.056641,429.239471 
z"/>
<path fill="#040404" opacity="1.000000" stroke="none" 
	d="
M305.400208,614.393921 
	C298.005829,622.636475 289.407593,627.224304 278.352203,626.264709 
	C269.699493,625.513672 265.318268,621.028748 265.345428,612.432495 
	C265.353729,609.799500 265.506104,607.036560 266.296143,604.557312 
	C271.785156,587.332214 276.596436,569.767395 286.956177,554.601257 
	C294.234680,543.945923 303.748749,536.736023 317.488739,536.826721 
	C328.585327,536.900024 333.909119,542.108276 332.093018,552.974915 
	C330.847443,560.427612 328.276947,567.737732 325.621490,574.859070 
	C320.466278,588.684082 316.000488,602.927795 305.400208,614.393921 
z"/>
<path fill="#060606" opacity="1.000000" stroke="none" 
	d="
M539.842041,381.438507 
	C539.905945,382.682983 540.181458,383.613190 539.905090,384.330933 
	C534.616882,398.065826 529.950928,412.099426 523.693420,425.382172 
	C519.182007,434.958405 509.701874,438.075958 499.402527,438.200256 
	C496.295624,438.237762 493.187866,438.206085 489.306122,438.206085 
	C493.067352,428.230621 496.556244,418.930786 500.079834,409.644073 
	C504.501831,397.989410 509.039459,386.377380 513.319031,374.670837 
	C514.204529,372.248413 515.262512,371.205872 517.882812,371.355621 
	C521.858459,371.582672 525.913147,371.055511 529.825195,371.613495 
	C535.117432,372.368347 539.268799,374.932983 539.842041,381.438507 
z"/>
<path fill="#080807" opacity="1.000000" stroke="none" 
	d="
M711.197876,392.228516 
	C713.571045,385.775513 715.713806,379.658569 718.103455,373.639618 
	C718.550720,372.513153 719.962891,371.020447 720.969971,370.989166 
	C726.770081,370.808929 732.641785,370.527435 738.374390,371.224731 
	C744.758301,372.001282 746.969360,376.308838 745.054138,382.474670 
	C742.793945,389.750885 735.941223,395.492340 728.146606,395.991608 
	C722.365173,396.361908 716.540955,396.064514 710.269165,396.064514 
	C710.587585,394.656464 710.820251,393.627472 711.197876,392.228516 
z"/>
<path fill="#080807" opacity="1.000000" stroke="none" 
	d="
M267.667511,388.592896 
	C263.280609,394.073303 257.666656,396.085999 251.229187,396.183533 
	C246.600098,396.253662 241.969070,396.197205 236.383667,396.197205 
	C238.350006,390.480377 240.112000,385.270111 241.933594,380.080719 
	C245.226578,370.699615 245.241318,370.685150 255.070648,370.626862 
	C257.886688,370.610168 260.742737,370.467377 263.512665,370.860260 
	C271.244995,371.956940 273.881134,376.998383 270.555481,384.103607 
	C269.857941,385.593842 268.792053,386.911621 267.667511,388.592896 
z"/>
<path fill="#0E0E0E" opacity="1.000000" stroke="none" 
	d="
M359.006531,412.917419 
	C358.858429,415.017365 358.724030,416.651337 358.549042,418.778351 
	C351.854492,418.778351 345.364166,418.778351 337.976990,418.778351 
	C345.098114,408.920227 351.885254,399.524475 359.020233,389.647186 
	C359.020233,397.783875 359.020233,405.117676 359.006531,412.917419 
z"/>
<path fill="#080807" opacity="1.000000" stroke="none" 
	d="
M964.333130,399.384399 
	C962.674072,403.416656 961.341064,407.177856 959.656311,410.774353 
	C956.933289,416.587708 952.852295,420.960693 946.211426,422.283722 
	C939.585022,423.603790 934.948975,419.837250 936.973267,413.596466 
	C940.386047,403.074646 944.374634,392.612030 949.479126,382.833466 
	C951.346741,379.255707 956.792786,376.658112 961.118164,375.457703 
	C967.732239,373.622192 971.728027,378.433014 969.731445,385.046875 
	C968.295349,389.803833 966.265930,394.381653 964.333130,399.384399 
z"/>
</svg>