<?xml version="1.0" encoding="UTF-8"?>
<svg id="uuid-6fdce48b-b6cb-4c67-add2-56132a415830" xmlns="http://www.w3.org/2000/svg" xmlns:xlink="http://www.w3.org/1999/xlink" version="1.1" viewBox="0 0 81 22.9">
  <defs>
    <style>
      .cls-1 {
        clip-path: url(#clippath);
      }

      .cls-2 {
        fill: none;
      }

      .cls-2, .cls-3 {
        stroke-width: 0px;
      }

      .cls-3 {
        fill: #fff;
      }
    </style>
    <clipPath id="clippath">
      <rect class="cls-2" width="81" height="22.9"/>
    </clipPath>
  </defs>
  <g id="uuid-ded7e455-e8c0-48c1-aba8-0de67f110aef">
    <g class="cls-1">
      <g>
        <path class="cls-3" d="M16.9,9.1v4.8c0,1.6.4,2.7,1.1,3.4.6.6,1.5,1,2.8,1s2.1-.4,2.8-1c.7-.7,1.1-1.8,1.1-3.4v-4.8c0-1.5-.4-2.7-1.1-3.4-.6-.7-1.6-1-2.8-1s-2.1.4-2.8,1c-.7.7-1.1,1.8-1.1,3.4M11.9,14.2v-5.5c0-2.5.9-4.6,2.6-6.2,1.7-1.5,3.8-2.3,6.3-2.3s4.6.8,6.2,2.3c1.8,1.6,2.7,3.7,2.7,6.2v5.5c0,2.5-.9,4.7-2.7,6.2-1.6,1.5-3.8,2.2-6.2,2.2s-4.6-.8-6.3-2.2c-1.8-1.6-2.6-3.7-2.6-6.2"/>
        <path class="cls-3" d="M43.7,8.3c0-2.4-.9-3.8-3-3.8s-3,1.7-3,4.2v14h-5.1v-14c0-6,4.3-8.7,8.1-8.7s4.4,1.2,5.5,2.4c1.1-1.2,2.7-2.4,5.5-2.4s8.1,2.7,8.1,8.7v14h-5.1v-14c0-2.4-1-4.2-3-4.2s-3,1.4-3,3.8v14.3h-5.1s0-14.3,0-14.3Z"/>
        <path class="cls-3" d="M62.8,8.7c0-5.2,4-8.7,9.1-8.7s9.1,3.5,9.1,8.7v14h-5.1v-13.6c0-3.2-1.7-4.5-4-4.5s-4,1.3-4,4.5v4.9c0,3.2,1.7,4.5,4,4.5h1.5v4.5h-1.5c-5.1,0-9.1-3.5-9.1-8.7v-5.6h0Z"/>
        <path class="cls-3" d="M8.8.2h0C3.8.3,0,3.7,0,8.8v13.7h5v-13.4c0-3.2,1.7-4.4,3.9-4.4h1.5V.2h-1.6Z"/>
      </g>
    </g>
  </g>
</svg>