<svg version="1.1" id="Layer_1" xmlns="http://www.w3.org/2000/svg" xmlns:xlink="http://www.w3.org/1999/xlink" x="0px" y="0px"
	 width="100%" viewBox="0 0 640 640" enable-background="new 0 0 640 640" xml:space="preserve">
<path fill="currentColor" opacity="1.000000" stroke="none" 
	d="
M112.592880,353.263275 
	C109.159248,333.163452 109.113510,313.475830 111.495079,293.672852 
	C115.087120,263.804657 124.274765,235.852203 140.155655,210.340714 
	C169.957153,162.466827 211.968307,130.413574 266.452057,115.424591 
	C295.901855,107.322685 326.109711,105.604248 356.048553,111.297859 
	C425.299622,124.467659 476.880859,162.309326 509.669556,225.032333 
	C526.157532,256.572845 533.148682,290.453339 531.978027,325.801300 
	C530.346802,375.054382 513.737061,418.856079 481.501770,456.394379 
	C446.504028,497.149567 402.323120,521.998291 349.110138,528.680420 
	C279.817383,537.381775 219.792938,516.638855 170.235245,467.180054 
	C139.241211,436.247955 120.785995,398.602051 112.804703,355.689240 
	C112.683556,355.037842 112.691048,354.362518 112.592880,353.263275 
M222.451782,299.387054 
	C220.685211,301.538300 219.974426,303.332520 223.463425,304.639404 
	C225.508133,305.405304 226.881821,307.182983 228.028351,309.095673 
	C230.678665,313.517151 233.328568,317.944885 236.178329,322.237549 
	C237.206894,323.786896 237.969879,327.007629 240.897263,324.736938 
	C243.858719,322.439850 241.245865,320.597931 239.820511,318.983948 
	C236.516586,315.242737 232.858109,311.802551 229.702087,307.946716 
	C227.342911,305.064392 223.796265,303.015411 223.685883,298.942352 
	C226.932755,299.414124 227.751785,303.512848 231.050629,304.119476 
	C231.370316,299.415649 228.809006,297.868011 222.451782,299.387054 
M453.858826,224.617920 
	C386.152252,130.655167 239.875412,132.829361 177.677078,240.985825 
	C187.738037,250.016220 193.509827,262.882874 207.540024,269.054291 
	C222.797043,275.765381 236.487488,286.038818 250.856964,294.765656 
	C253.109329,296.133545 255.126328,297.772644 253.947601,300.774323 
	C252.718613,303.903961 250.066360,303.276428 247.553192,302.794373 
	C243.553818,302.027313 239.617844,300.785583 235.490082,300.950012 
	C234.952057,301.531433 234.414032,302.112885 233.876022,302.694336 
	C238.446899,306.805603 243.017776,310.916901 248.140167,315.524231 
	C243.773590,315.217804 241.658676,311.435883 237.870300,311.590240 
	C240.931793,316.266602 245.077515,319.867676 248.697540,323.921600 
	C250.342377,325.763611 252.133972,325.886108 254.525223,325.022552 
	C263.920044,321.629883 273.359711,318.341644 282.884033,315.335541 
	C287.713715,313.811188 292.377045,311.509247 297.369141,310.966339 
	C298.727692,313.252563 298.323669,315.298889 298.326019,317.261566 
	C298.352905,339.758728 298.408264,362.256317 298.274017,384.752716 
	C298.251343,388.553528 299.204224,391.422150 302.201172,393.896484 
	C308.106689,398.772125 313.576965,404.190521 319.610565,408.892609 
	C338.291809,423.451263 357.982330,436.209442 382.214355,439.188690 
	C396.924286,440.997253 409.517334,434.396149 413.002075,420.066345 
	C414.258820,414.898376 414.962891,409.663940 414.292603,404.245453 
	C412.597107,390.540283 408.350769,377.670319 402.662048,365.143677 
	C400.779877,360.999084 398.665558,359.163177 394.326050,361.244049 
	C391.906281,362.404327 389.954834,362.130646 388.755280,359.208923 
	C386.643585,363.925781 361.009430,374.195709 353.108795,373.779694 
	C352.980499,373.039703 352.731262,372.246460 352.721161,371.450226 
	C352.421356,347.796967 352.962738,324.141937 352.422028,300.483063 
	C352.301483,295.208710 350.431671,291.546143 347.100281,288.182159 
	C330.083862,270.999207 312.599518,254.340530 292.464539,240.753113 
	C281.239502,233.178299 269.646729,226.267273 256.307983,223.043839 
	C238.911942,218.839905 230.085907,226.219360 231.357712,243.893799 
	C232.050507,253.521927 235.756592,262.280640 239.686752,270.949951 
	C240.814209,273.436951 242.482910,275.785370 242.509064,278.686737 
	C241.061523,278.964630 240.646774,278.121490 240.305191,277.439636 
	C234.552048,265.955566 229.551407,254.375214 228.393707,241.208359 
	C226.705933,222.012619 241.171890,216.855972 253.899887,219.246658 
	C263.021027,220.959839 271.476868,224.349075 279.491119,228.869186 
	C306.641541,244.182358 329.277405,265.022736 350.564606,287.445679 
	C353.079803,290.095093 355.260010,291.403107 358.731628,289.794189 
	C363.065887,287.785461 364.576263,289.721802 364.226959,293.956451 
	C363.884399,298.109222 364.702728,301.701477 367.766785,304.912689 
	C374.330353,311.791504 379.858276,319.531891 385.413910,327.232727 
	C386.230835,328.365051 386.746002,330.047943 389.154846,329.488403 
	C389.154846,317.416321 389.154846,305.295166 389.154846,293.391785 
	C386.892456,292.404724 384.971710,293.880005 383.281189,292.712280 
	C381.155487,283.589996 381.855530,282.132904 390.352020,279.235443 
	C411.000885,272.193817 431.670685,265.213257 452.347870,258.255096 
	C454.006409,257.696960 455.681641,256.591980 457.563629,257.577820 
	C458.599274,259.306946 458.260864,261.179749 458.263123,262.984253 
	C458.292145,286.481293 458.136505,309.980377 458.433441,333.473816 
	C458.497131,338.511993 456.562653,340.441315 452.115479,341.867462 
	C447.789825,343.254669 446.739929,341.964783 446.803558,337.930450 
	C446.919220,330.600067 446.817902,323.266266 446.807709,315.933868 
	C446.790131,303.268829 446.811188,290.603516 446.711853,277.939117 
	C446.697998,276.171814 447.564545,273.611664 444.316772,273.425507 
	C435.865845,272.941193 429.096313,279.179138 429.407104,287.723969 
	C430.067413,305.877625 430.039185,324.032501 429.868042,342.187531 
	C429.793182,350.127991 427.816345,351.745850 419.224182,351.978302 
	C418.457153,351.160034 418.584320,350.143341 418.584015,349.148956 
	C418.578156,330.489319 418.848206,311.831512 418.160431,293.171844 
	C417.751709,282.083221 417.844940,282.103241 407.162811,285.644104 
	C402.660858,287.136322 400.990906,289.463715 401.065186,294.295685 
	C401.346863,312.622559 401.218842,330.956085 401.187958,349.287048 
	C401.183655,351.846039 401.982239,353.931915 403.156830,356.254303 
	C412.088348,373.913574 418.983093,392.070068 418.456635,412.460968 
	C417.940857,432.437836 404.672089,446.174072 381.649933,443.650513 
	C363.099915,441.617126 347.070679,433.148651 331.666687,423.280457 
	C318.443298,414.809265 306.685150,404.487793 295.579163,394.246887 
	C281.530731,399.029907 267.982697,403.642578 254.178192,408.342560 
	C253.803848,406.664978 253.539383,406.032898 253.539749,405.400940 
	C253.549332,388.404266 253.574905,371.407562 253.643646,354.411011 
	C253.648193,353.286041 253.682678,351.930908 254.274094,351.079132 
	C256.617035,347.704590 253.651276,348.149139 251.992188,347.250397 
	C248.684967,351.276672 251.285675,357.294067 245.924316,360.562866 
	C241.800522,363.077118 238.898056,367.594604 234.600098,372.118469 
	C238.424698,370.982513 241.119537,370.249908 243.769806,369.381378 
	C249.932724,367.361633 250.134949,367.468933 250.149551,374.165497 
	C250.170258,383.664185 250.162338,393.163086 250.121643,402.661743 
	C250.088654,410.361450 247.457306,412.722870 239.372650,412.283203 
	C238.447586,410.645447 238.720505,408.783905 238.710831,406.983948 
	C238.681274,401.484772 238.719406,395.985260 238.691467,390.486084 
	C238.658356,383.973145 238.039474,383.542999 231.694839,385.644989 
	C228.690628,386.640320 225.775894,387.979126 222.712250,388.704803 
	C217.850006,389.856415 215.924194,392.528778 216.196289,397.608490 
	C216.561203,404.420441 216.356995,411.270233 216.202118,418.099365 
	C216.131027,421.233734 211.533569,424.401154 207.233200,424.167389 
	C202.981735,423.936279 204.803802,420.390442 204.792801,418.363434 
	C204.663376,394.533905 204.791061,370.702942 204.657730,346.873444 
	C204.636566,343.089508 205.901978,341.087982 209.519394,339.975555 
	C217.156433,337.627045 224.713089,335.013092 232.274857,332.426575 
	C234.164856,331.780090 236.287140,330.990662 235.600189,328.291107 
	C235.020767,326.014130 233.570374,324.925079 231.213165,325.781342 
	C229.963669,326.875000 231.595291,328.984955 229.308151,329.836273 
	C225.904068,326.339813 226.217636,320.683319 222.757523,317.033630 
	C220.584091,318.879364 221.431885,321.248871 220.937286,323.257843 
	C220.476227,325.130554 220.591156,327.523102 218.054001,328.009247 
	C215.244598,328.547546 214.348648,326.356598 213.504028,324.316589 
	C208.794983,312.942810 204.456375,301.397949 199.279617,290.241760 
	C195.866913,282.887238 195.322479,274.437012 190.463623,267.751678 
	C186.254044,261.959656 181.752411,256.378876 177.334000,250.740662 
	C176.581039,249.779831 176.184723,248.251511 174.306992,248.435715 
	C173.935471,249.108200 173.494720,249.808243 173.145920,250.551437 
	C156.436935,286.155121 153.201141,323.148773 163.046722,361.025208 
	C171.620865,394.010284 189.200272,421.777039 215.359299,443.722626 
	C254.729477,476.751495 300.053680,488.941986 350.580292,480.002533 
	C387.986847,473.384338 419.125763,455.006500 444.089783,426.362244 
	C471.045654,395.432495 484.474396,359.186859 484.349518,318.348724 
	C484.245422,284.312866 473.935272,253.140396 453.858826,224.617920 
M382.511841,330.958527 
	C377.325836,324.208282 372.824707,316.858643 366.317078,311.444824 
	C364.070709,312.647156 364.253632,314.264191 364.247101,315.705109 
	C364.189636,328.337982 364.209045,340.971252 364.142242,353.604034 
	C364.120361,357.740906 366.165253,358.341797 369.622833,357.242340 
	C376.069916,355.192261 382.365173,352.625854 389.019043,351.573853 
	C391.747528,343.330566 387.410614,337.414642 382.511841,330.958527 
M265.771027,352.627136 
	C271.467834,360.884827 278.415466,368.004242 285.344727,375.716156 
	C286.178894,374.325317 286.636414,373.917297 286.639587,373.505768 
	C286.750458,359.219299 286.850220,344.932495 286.864349,330.645660 
	C286.867004,327.961639 285.231964,327.224091 282.801605,327.984589 
	C279.159088,329.124420 275.510956,330.247070 271.879517,331.421265 
	C264.898621,333.678528 264.583984,334.753052 264.734497,342.272980 
	C264.822693,346.680725 268.662903,349.030884 269.442017,352.789185 
	C267.906586,353.960083 267.187622,352.150665 265.771027,352.627136 
M264.963623,367.865417 
	C264.803986,374.344696 264.608521,380.823425 264.504425,387.303589 
	C264.468781,389.521149 264.646118,392.402069 267.785492,391.442596 
	C273.738922,389.623047 279.843781,388.040131 286.342590,384.675415 
	C279.346558,376.704315 272.825897,369.274811 266.305237,361.845337 
	C265.946472,362.089386 265.587677,362.333435 265.228882,362.577484 
	C265.143921,364.050201 265.058960,365.522888 264.963623,367.865417 
M216.284409,364.092163 
	C216.498962,365.833069 215.790039,367.790588 218.023743,369.687073 
	C225.161652,363.832458 232.177383,357.701111 238.194122,350.538513 
	C239.383347,349.122833 239.120712,346.582031 237.985123,344.841217 
	C236.792053,343.012238 234.942291,344.201385 233.429260,344.529205 
	C231.657990,344.913055 229.938919,345.563446 228.222046,346.168640 
	C216.284302,350.376740 216.286377,350.382599 216.284409,364.092163 
M203.528702,281.779877 
	C200.413681,283.881958 200.022232,280.170959 197.421860,278.716461 
	C201.338837,285.888489 204.793991,292.214935 208.249130,298.541351 
	C210.692154,294.191315 208.288803,291.650787 206.321960,289.102692 
	C204.188080,286.338104 205.985580,284.877014 207.867752,283.372101 
	C209.555069,282.023010 211.664398,280.077698 213.347046,282.717010 
	C215.668213,286.357849 219.489105,286.958160 223.476471,289.200745 
	C222.191345,286.386749 224.766113,283.703156 221.622375,281.865234 
	C217.205215,279.282776 212.896683,276.514526 207.476410,273.168030 
	C209.030914,277.872955 206.282562,279.462830 203.528702,281.779877 
M492.832581,399.268066 
	C497.932556,396.199432 490.173004,394.381805 492.176300,391.497986 
	C495.174072,390.678986 497.690033,395.179626 502.040497,392.182495 
	C495.726013,389.393860 490.186768,386.947571 484.133270,384.274200 
	C483.548615,390.176666 489.436371,391.585510 490.193115,395.933746 
	C486.779327,398.639130 481.890320,395.390625 478.635620,398.659210 
	C482.580566,402.902557 491.702545,406.684814 494.998932,405.476135 
	C493.157135,402.930511 489.236084,403.106995 487.572632,400.074219 
	C489.234467,398.891541 490.789398,399.764465 492.832581,399.268066 
M239.315155,493.813141 
	C239.354828,495.620667 239.731308,497.085358 242.554352,496.676208 
	C241.656693,491.983856 242.532303,488.399780 247.069275,485.762421 
	C249.731750,484.214661 249.019379,480.823364 246.575806,478.934814 
	C244.151199,477.060913 241.512360,475.232513 238.325119,474.996948 
	C232.584747,484.246429 230.822586,488.832397 231.782913,491.891144 
	C233.043198,491.767212 233.106140,490.556183 233.687286,489.812408 
	C234.745087,488.458771 235.204941,485.939056 237.576279,486.733276 
	C239.736618,487.456940 239.150192,489.762268 239.284470,491.534760 
	C239.322144,492.031860 239.299072,492.533569 239.315155,493.813141 
M287.290009,503.582092 
	C286.783783,507.468292 287.926025,510.527527 291.757355,512.098938 
	C294.622894,513.274231 297.012207,512.053223 299.033844,510.158661 
	C301.346710,507.991272 302.647156,499.612274 301.107086,496.860718 
	C299.705231,494.356140 297.466431,493.042023 294.518280,493.101776 
	C291.749176,493.157867 289.607086,494.390533 288.609467,496.938843 
	C287.894531,498.765076 287.727325,500.805786 287.290009,503.582092 
M367.421051,493.297424 
	C366.556488,492.003479 366.948029,489.448090 363.211060,490.057434 
	C365.259003,496.057434 365.915985,502.190826 369.419739,507.848083 
	C370.987091,506.215027 370.781158,505.029541 370.368622,503.974396 
	C369.134796,500.818726 370.121857,499.008209 373.351959,497.987610 
	C376.887054,496.870575 377.100525,499.457733 377.896027,501.599884 
	C378.365387,502.863617 378.243958,504.798737 381.448853,504.235840 
	C379.887726,498.248169 378.802551,492.275330 376.064240,486.349426 
	C373.707062,488.297424 374.642334,489.752747 374.929565,491.136108 
	C375.332184,493.075104 375.335327,494.775452 373.002167,495.539032 
	C370.850555,496.243164 368.758148,496.937408 367.421051,493.297424 
M191.791214,462.211853 
	C192.175781,467.976288 198.836884,471.586365 203.496872,468.477692 
	C206.315308,466.597504 208.154495,463.823975 209.801163,460.909912 
	C210.946793,458.882568 210.679977,456.946930 209.160721,455.428589 
	C207.115021,453.384033 205.257645,451.007294 202.122284,449.760223 
	C198.744217,453.804657 195.467651,457.727570 191.791214,462.211853 
M170.896011,410.805786 
	C169.534927,409.054535 169.002167,405.142914 166.695557,405.941986 
	C161.143036,407.865448 156.144302,411.173615 151.338303,415.275848 
	C153.631195,416.550262 154.580719,415.311890 155.684097,414.729340 
	C157.104141,413.979584 158.507858,412.486755 160.121582,414.071350 
	C161.638290,415.560669 160.423843,417.116638 159.859467,418.651184 
	C159.120941,420.659088 156.651413,422.133453 157.703018,424.847412 
	C159.568939,424.719666 160.056931,423.277069 160.585678,422.203735 
	C161.743668,419.853088 163.276505,418.930450 166.035934,418.926270 
	C171.231689,418.918427 172.316086,417.109283 170.896011,410.805786 
M438.191681,466.462494 
	C441.042328,469.472351 444.241577,469.771637 447.511261,467.341400 
	C449.730194,465.692200 451.436646,463.525848 450.060486,460.522583 
	C448.444061,456.995087 446.052521,454.027771 442.667053,452.030090 
	C439.549561,450.190552 436.948029,451.317810 434.692993,453.735840 
	C432.523956,456.061584 431.855774,458.596008 433.902039,461.333313 
	C435.089172,462.921326 436.417480,464.403839 438.191681,466.462494 
M492.281006,277.273956 
	C491.378113,281.165619 492.779541,284.592377 494.164398,288.152710 
	C500.444366,287.694336 506.048706,285.691772 511.970428,284.147552 
	C511.700256,280.431061 511.587433,276.931519 509.274994,273.400726 
	C507.716400,275.745361 508.674774,277.615448 508.992188,279.453918 
	C509.276398,281.099884 509.012665,282.449829 507.144531,282.951050 
	C505.258392,283.457092 504.008423,282.864166 503.155243,281.016174 
	C502.531647,279.665466 503.318115,277.512878 501.069977,276.970184 
	C499.738251,278.107361 500.338654,279.511780 500.581909,280.693420 
	C501.035828,282.897980 500.479156,284.292084 498.164215,284.693329 
	C495.613464,285.135437 495.090302,283.385010 494.737091,281.459930 
	C494.444977,279.867584 494.566711,278.084351 492.281006,277.273956 
M393.250824,481.894043 
	C394.576691,481.190887 396.467346,481.178619 396.949738,479.080627 
	C386.912964,479.772766 385.304443,482.206024 389.010651,490.615570 
	C389.948364,492.743286 390.728729,494.940918 391.685638,497.059326 
	C392.306580,498.433868 393.066010,499.900238 394.998108,499.341736 
	C397.960388,498.485443 400.772064,497.307190 403.360962,495.122528 
	C401.009674,493.556488 399.487671,495.113251 397.895233,495.623535 
	C396.092163,496.201233 394.695129,496.265137 393.715546,494.324432 
	C392.743561,492.398773 393.431641,491.291229 395.173523,490.296936 
	C396.371979,489.612854 398.119720,489.430389 398.440857,487.596649 
	C397.323822,486.424255 396.272980,487.327606 395.264069,487.657867 
	C393.525604,488.226959 391.768677,489.224915 390.550446,486.851227 
	C389.314728,484.443634 390.476074,483.109253 393.250824,481.894043 
M262.431641,499.477417 
	C259.104034,504.388458 255.897049,498.170319 252.192810,499.171204 
	C253.787384,503.260834 256.894806,503.932678 260.329437,503.870361 
	C262.939423,503.822998 264.816528,502.443329 265.507385,499.935577 
	C266.472015,496.434113 264.024689,494.804260 261.488251,493.319611 
	C261.200989,493.151428 260.930084,492.955597 260.647400,492.779236 
	C259.244690,491.904175 258.321503,490.732605 259.045074,489.045715 
	C259.922943,486.999054 261.642609,487.464325 263.332703,487.806488 
	C264.829376,488.109497 265.873779,490.229736 268.163635,488.740662 
	C266.264221,485.552307 263.446564,484.822205 260.150146,485.173096 
	C257.675293,485.436554 256.133575,487.050568 255.714478,489.312439 
	C255.119370,492.524200 257.484222,494.052948 259.899658,495.367584 
	C261.276031,496.116699 262.398529,497.037354 262.431641,499.477417 
M508.650970,360.212921 
	C508.040741,362.188995 507.430481,364.165100 506.460205,367.307007 
	C510.541809,365.094604 511.662689,362.386261 511.458099,359.204590 
	C511.286774,356.540802 509.629456,354.486542 507.013184,353.772156 
	C503.799927,352.894714 502.211853,355.188049 500.838104,357.568542 
	C500.342590,358.427216 499.961029,359.356354 499.420197,360.183167 
	C498.617279,361.410645 497.481384,362.000092 496.022522,361.408478 
	C494.700775,360.872375 494.872711,359.601349 494.618835,358.480011 
	C494.186829,356.571655 496.579346,355.094116 495.542816,352.871643 
	C492.012939,354.690674 491.684967,357.580414 492.298950,360.616241 
	C492.767029,362.930511 494.577637,364.384247 496.882874,364.543427 
	C500.037994,364.761261 501.450562,362.342651 502.719147,359.939545 
	C502.873688,359.646729 502.978760,359.321503 503.167206,359.053894 
	C505.236450,356.115204 507.137543,355.510132 508.650970,360.212921 
M514.277222,335.417877 
	C510.023132,330.251892 506.407043,330.823456 503.763184,337.009796 
	C503.032440,338.719696 502.791412,341.502960 500.012177,340.681976 
	C497.339142,339.892395 497.577423,337.470825 498.225250,335.242798 
	C498.456055,334.448853 498.796417,333.672424 497.585571,332.671326 
	C495.049530,334.651459 494.856323,337.295135 495.727753,340.042023 
	C496.424713,342.238922 498.048096,343.669678 500.552734,343.722076 
	C503.531525,343.784424 505.140076,342.164429 505.878052,339.431854 
	C506.050934,338.791779 506.338745,338.182526 506.577209,337.560425 
	C507.140991,336.089691 507.867096,334.677460 509.761475,335.090332 
	C511.743042,335.522156 511.928162,337.191498 512.281372,338.915405 
	C512.675659,340.840149 510.145477,342.393158 511.789551,344.723450 
	C514.819214,342.302673 515.016968,339.336578 514.277222,335.417877 
M321.305450,495.201569 
	C311.391876,494.921722 311.286957,494.922638 311.373566,504.839203 
	C311.398834,507.734528 310.071899,511.012360 313.710968,514.729797 
	C313.751282,508.345062 316.040802,504.599854 322.543121,504.719513 
	C319.185059,502.664276 312.700409,504.905823 315.309814,497.740204 
	C317.536987,497.629852 319.703857,497.712250 321.797363,497.359344 
	C323.501953,497.071960 323.747528,496.153320 321.305450,495.201569 
M219.343979,482.821991 
	C218.664902,482.347809 218.014038,481.825317 217.301208,481.408966 
	C215.523697,480.370636 213.698425,479.437500 215.046875,476.822296 
	C216.310135,474.372314 218.047989,474.849701 220.079865,475.676117 
	C221.031769,476.063263 221.913559,477.186218 223.227127,476.463379 
	C222.509369,473.826721 217.140549,473.214417 219.850189,469.305328 
	C223.061768,464.672089 225.712021,471.405731 229.195282,469.903473 
	C227.321579,467.590149 224.598007,466.655792 222.388397,465.062164 
	C220.776489,463.899567 219.447372,464.804291 218.583588,466.110626 
	C215.772568,470.361908 213.091476,474.699127 210.161880,479.316132 
	C213.125061,481.331055 215.625671,483.218414 218.311691,484.788666 
	C219.960663,485.752747 220.975876,485.362122 219.343979,482.821991 
M165.380295,433.155029 
	C164.068176,434.731140 164.947754,435.237274 166.457993,435.081360 
	C169.811783,434.735138 170.954224,437.336823 172.502563,439.414398 
	C173.765579,441.109131 171.159882,443.226257 173.557724,445.469269 
	C176.709549,439.859955 180.940811,435.175629 183.259598,427.824890 
	C176.388931,429.072144 171.136093,430.861206 165.380295,433.155029 
M464.927155,442.512054 
	C461.768738,439.928467 459.065857,441.519653 456.411743,443.453766 
	C454.954803,444.515503 453.358429,445.067261 451.885406,443.763428 
	C450.407837,442.455566 450.716156,440.831299 451.707092,439.272522 
	C452.088257,438.672974 452.979584,438.090637 452.035065,437.243835 
	C448.488159,440.396088 447.805023,442.664764 449.942322,445.037750 
	C452.606812,447.996033 455.482330,447.437836 458.226715,445.068848 
	C459.856567,443.661926 461.567780,442.448975 463.290375,444.650513 
	C465.046570,446.895020 463.442566,448.614502 461.964630,450.275299 
	C461.052032,451.300751 458.938354,451.111511 459.007690,453.160858 
	C464.930267,453.087555 467.875519,448.438110 464.927155,442.512054 
M348.582947,501.975037 
	C349.746674,504.986176 348.627625,508.831390 351.940521,511.570251 
	C353.330017,508.923492 352.474335,506.714111 352.151215,504.488708 
	C351.536621,500.255768 348.937622,495.582520 355.046936,492.529175 
	C350.567444,492.433868 346.533051,492.011353 342.451080,495.486908 
	C347.542297,494.839813 348.540894,497.523712 348.582947,501.975037 
M502.902893,307.959869 
	C506.019806,307.618774 509.139313,307.299469 512.252197,306.925110 
	C513.385315,306.788818 515.003723,306.675873 514.890442,305.259094 
	C514.639465,302.121399 515.533936,298.756470 513.707275,295.821869 
	C512.088501,296.252716 512.127869,297.398987 512.295776,298.298950 
	C513.349426,303.945557 510.021454,305.107544 505.478729,305.162537 
	C503.663940,305.184479 501.844177,305.266449 500.038818,305.444397 
	C498.663391,305.579926 496.938904,305.395355 496.900940,307.789856 
	C498.575256,309.038666 500.361969,308.174652 502.902893,307.959869 
M429.026459,481.363251 
	C430.908844,480.222382 432.807526,479.096802 434.144440,476.294037 
	C432.720123,476.821320 431.990997,476.902618 431.521393,477.294708 
	C427.501740,480.651215 424.936707,479.117065 422.585480,475.093353 
	C421.093414,472.539917 419.832367,469.548035 415.994385,467.678650 
	C417.215027,473.428925 420.945618,476.707214 423.240143,480.769867 
	C424.728607,483.405304 426.395569,483.210968 429.026459,481.363251 
M462.847137,422.965790 
	C462.514801,423.765472 461.530457,425.384399 462.838226,425.215790 
	C467.818756,424.573730 469.895660,428.983551 473.461212,430.704620 
	C475.049988,431.471466 476.172760,433.484772 479.123444,432.624634 
	C475.162842,427.660034 469.194000,425.836487 465.823120,421.049957 
	C465.024780,419.916321 463.964294,421.735321 462.847137,422.965790 
M229.615585,291.391846 
	C227.572723,291.394318 226.637283,292.411469 226.789612,294.899139 
	C230.918686,296.551270 234.850739,294.964233 239.503479,294.163788 
	C236.534485,291.087646 234.328049,288.068665 229.615585,291.391846 
M514.148804,319.334045 
	C508.371735,318.940155 502.591461,318.493988 496.902466,320.464294 
	C502.778107,321.682587 508.632172,322.277313 514.541504,321.030151 
	C514.683533,321.000153 514.659485,320.183075 514.148804,319.334045 
M504.571686,377.525238 
	C499.174866,375.982269 493.995636,373.431610 488.137207,373.798584 
	C493.094818,376.895630 498.485840,378.607422 504.085205,379.662445 
	C504.982971,379.831635 505.486786,378.966522 504.571686,377.525238 
M183.900604,453.252716 
	C187.581116,449.561218 191.674850,446.211487 194.749023,442.018555 
	C194.353333,441.671814 193.957642,441.325073 193.561951,440.978333 
	C189.555069,445.543365 185.548172,450.108398 181.518082,454.699890 
	C181.773209,454.961334 182.585861,454.216278 183.900604,453.252716 
M164.438950,226.464737 
	C161.442551,224.747543 161.252945,226.529495 161.867691,228.704330 
	C162.446533,230.752197 163.420807,232.688324 164.241104,234.723160 
	C166.110458,232.111008 168.313812,229.686295 164.438950,226.464737 
M169.314194,226.456757 
	C169.685471,227.685638 168.554108,229.224960 170.085526,230.281876 
	C170.538483,223.680771 170.262009,223.106964 165.251831,220.237701 
	C166.362991,222.274887 168.957733,223.173477 169.314194,226.456757 
z"/>
<path fill="currentColor" opacity="1.000000" stroke="none" 
	d="
M315.088684,380.719177 
	C315.088135,359.644409 315.088135,339.036835 315.088135,318.493408 
	C309.985168,317.386566 306.465881,320.918610 302.321716,320.523285 
	C299.015533,312.699738 300.469879,309.366211 307.941528,306.893616 
	C320.429962,302.760864 332.882782,298.520630 345.351654,294.328796 
	C346.736237,293.863312 348.066101,293.060913 349.561554,293.442963 
	C352.862152,301.194794 351.308838,304.902435 344.047913,307.186096 
	C340.080231,308.433990 336.225098,310.080475 332.209167,311.123444 
	C327.692383,312.296448 326.273834,314.918915 326.319275,319.473663 
	C326.508820,338.466400 326.399780,357.462250 326.377167,376.456940 
	C326.366852,385.099731 325.767944,385.702209 316.495239,386.786255 
	C314.846436,385.228912 315.231659,383.139374 315.088684,380.719177 
z"/>
<path fill="currentColor" opacity="1.000000" stroke="none" 
	d="
M403.816376,220.203491 
	C406.120483,222.305466 409.288483,222.686874 411.020386,225.817810 
	C403.443939,229.274216 398.238312,235.056244 394.578339,243.621765 
	C390.745850,235.039978 385.474915,229.316406 376.968353,225.271729 
	C385.127655,221.011719 390.842102,215.712036 394.299957,206.755325 
	C397.291748,212.168121 399.437256,216.852097 403.816376,220.203491 
z"/>
<path fill="currentColor" opacity="1.000000" stroke="none" 
	d="
M290.097900,182.897232 
	C291.641876,184.397232 293.701813,184.722015 294.855713,187.138840 
	C290.514648,190.068787 286.169556,193.294815 283.758698,199.752121 
	C280.624115,193.741196 276.879089,190.141510 271.617126,187.027435 
	C276.205536,183.128952 281.095520,180.334641 282.673401,173.971313 
	C285.520020,177.450195 287.665039,180.071671 290.097900,182.897232 
z"/>
<path fill="currentColor" opacity="1.000000" stroke="none" 
	d="
M186.749054,339.762543 
	C185.487045,341.473389 184.461807,342.928284 183.007202,344.992493 
	C180.205353,340.859406 177.430405,337.270844 172.670166,334.673950 
	C177.202515,331.818359 180.363785,328.769257 182.891037,324.005280 
	C185.575943,328.518341 188.778992,331.650177 192.955353,334.317291 
	C190.641281,336.328918 188.813538,337.917755 186.749054,339.762543 
z"/>
<path fill="currentColor" opacity="1.000000" stroke="none" 
	d="
M294.001892,442.834778 
	C291.910706,440.751617 290.015869,438.948364 288.063782,437.090668 
	C288.544281,434.372162 291.415497,434.109222 292.821442,432.376801 
	C294.136322,430.756683 294.655090,428.470642 297.099365,427.277954 
	C299.566772,430.689392 302.299835,433.901947 306.654236,436.450592 
	C303.154999,439.762756 299.188110,442.016083 297.511078,446.062714 
	C295.234955,446.024017 295.208344,444.063507 294.001892,442.834778 
z"/>
<path fill="currentColor" opacity="1.000000" stroke="none" 
	d="
M203.125061,231.840378 
	C203.956039,229.276932 205.785431,227.866104 207.815323,225.826157 
	C209.428879,227.819763 210.952377,229.702118 212.807434,231.994095 
	C211.536438,233.387283 209.932495,235.145416 208.208221,237.035446 
	C205.761200,235.994949 204.587601,233.977280 203.125061,231.840378 
z"/>
<path fill="currentColor" opacity="1.000000" stroke="none" 
	d="
M335.419678,227.270630 
	C331.665649,229.928970 330.446777,226.043686 329.646759,224.622986 
	C327.648132,221.073593 332.396851,220.605270 333.012573,217.323761 
	C335.317444,219.732452 336.884216,221.369781 338.341766,222.892990 
	C338.532257,225.189987 336.520081,225.720383 335.419678,227.270630 
z"/>
<path fill="currentColor" opacity="1.000000" stroke="none" 
	d="
M306.068329,283.130005 
	C304.450134,281.863739 303.129303,280.640442 301.860199,279.365631 
	C301.535919,279.039856 301.375427,278.551025 301.093048,278.055237 
	C302.128876,275.894684 303.980957,274.571777 305.819519,273.016846 
	C308.109680,273.926392 309.219971,276.049591 311.076385,277.405731 
	C310.216797,280.140137 308.191467,281.559448 306.068329,283.130005 
z"/>
<path fill="currentColor" opacity="1.000000" stroke="none" 
	d="
M439.646667,369.837982 
	C444.407257,366.401245 443.851196,372.440155 446.502533,372.693420 
	C445.679626,375.497864 443.735474,376.737823 442.059662,378.186493 
	C436.102722,374.236115 435.977356,373.841675 439.646667,369.837982 
z"/>
<path fill="currentColor" opacity="1.000000" stroke="none" 
	d="
M387.008179,417.821838 
	C381.961853,421.675018 382.582306,415.631866 380.135742,414.824982 
	C381.362610,412.508575 382.873810,411.070038 384.927399,409.694794 
	C387.090179,411.993134 391.018219,413.504517 387.008179,417.821838 
z"/>
<path fill="currentColor" opacity="1.000000" stroke="none" 
	d="
M238.086624,481.498810 
	C239.022247,479.258118 240.143173,478.008606 242.415939,479.137207 
	C244.156830,480.001709 245.586960,481.079071 245.166229,483.325775 
	C244.927185,484.602356 244.098709,485.523529 242.801056,485.509277 
	C240.366714,485.482513 238.064911,485.064606 238.086624,481.498810 
z"/>
<path fill="currentColor" opacity="1.000000" stroke="none" 
	d="
M290.521271,503.360046 
	C290.685059,501.315277 290.751434,499.682098 291.532074,498.145111 
	C292.379181,496.477264 293.613770,495.570892 295.488434,495.863922 
	C297.434143,496.168121 298.263580,497.511383 298.275482,499.377563 
	C298.287079,501.190369 298.449829,503.050568 298.110016,504.805481 
	C297.637665,507.244598 296.996338,509.894470 293.501678,509.383728 
	C290.030304,508.876404 290.084137,506.389008 290.521271,503.360046 
z"/>
<path fill="currentColor" opacity="1.000000" stroke="none" 
	d="
M206.449585,461.063568 
	C204.880875,463.275879 203.477478,465.140503 201.447540,466.375275 
	C199.242737,467.716461 197.281219,467.172302 195.663818,465.340240 
	C194.022903,463.481598 195.191513,462.010895 196.474319,460.578430 
	C197.581451,459.342133 198.544952,457.962677 199.741592,456.824921 
	C201.159515,455.476685 202.033585,452.565704 204.835007,454.285889 
	C207.275055,455.784210 207.964233,458.048828 206.449585,461.063568 
z"/>
<path fill="currentColor" opacity="1.000000" stroke="none" 
	d="
M169.286316,413.877625 
	C169.014999,416.394745 167.925125,417.797211 165.700851,417.000916 
	C163.785278,416.315125 162.481522,414.549042 162.238266,412.558807 
	C161.998489,410.596863 163.700180,409.595490 165.357315,409.424316 
	C168.157547,409.135132 168.693787,411.435974 169.286316,413.877625 
z"/>
<path fill="currentColor" opacity="1.000000" stroke="none" 
	d="
M441.126984,453.804443 
	C443.413361,455.970032 445.609802,457.778931 446.854065,460.366638 
	C447.713531,462.154144 447.716217,463.929810 446.080109,465.315216 
	C444.464752,466.682983 442.709412,466.446198 441.041870,465.378387 
	C439.039764,464.096252 437.737000,462.124969 436.537994,460.178558 
	C434.040344,456.124084 435.668762,453.719879 441.126984,453.804443 
z"/>
<path fill="currentColor" opacity="1.000000" stroke="none" 
	d="
M177.847366,432.044098 
	C177.827362,434.593750 177.067947,436.756226 174.488052,437.225616 
	C173.331451,437.436066 172.242477,436.054779 172.410629,434.947144 
	C172.856979,432.006958 175.457886,432.183929 177.847366,432.044098 
z"/>
</svg>